<svg width="1440" height="901" viewBox="0 0 1440 901" fill="none" xmlns="http://www.w3.org/2000/svg">
<rect y="1" width="1446" height="900" fill="url(#paint0_linear)"/>
<path d="M966.5 273.5C803.7 300.7 739 102.5 727 0H1439.5V348C1420.5 286.5 1170 239.5 966.5 273.5Z" fill="white"/>
<path d="M0 854.512C27.1007 838.35 99.5701 815.722 172.642 854.512C245.713 893.302 356.325 845.014 402.496 816.022C435.787 794.861 527.059 762.736 625.826 803.525C724.594 844.315 891.146 771.2 962.076 729.544C1008.25 691.387 1116.75 618.873 1181.39 634.069C1256.38 651.697 1420.83 541.426 1439.3 505.086C1439.7 498.007 1440.21 495.309 1440.86 498.059C1441.29 499.894 1440.74 502.268 1439.3 505.086C1436.78 550.507 1439.12 776.306 1440.86 901H0V854.512Z" fill="white"/>
<g clip-path="url(#clip0)">
<path d="M409.387 227.668C387.179 165.111 314.668 121.343 230.82 121.578C186.492 121.702 140.151 134.253 107.186 174.999C48.2574 247.835 113.871 295.553 159.347 317.875C181.337 328.669 201.175 341.848 218.414 356.961C249.429 384.151 308.627 417.431 376.783 361.33C426.183 320.668 424.18 269.337 409.387 227.668Z" fill="#F2F2F2"/>
<path d="M190.715 175.437C190.849 174.584 190.872 173.717 190.783 172.858C190.785 172.701 190.755 172.545 190.694 172.401C190.633 172.256 190.542 172.126 190.428 172.019C190.262 171.92 190.075 171.864 189.882 171.854L186.947 171.47C186.709 171.413 186.458 171.435 186.234 171.534C185.756 171.813 185.937 172.537 185.772 173.065C185.587 173.658 184.916 173.99 184.294 173.983C183.672 173.932 183.068 173.749 182.523 173.446L178.77 171.698C180.034 171.663 181.264 171.274 182.318 170.574C183.012 170.111 183.619 169.047 182.955 168.541C182.751 168.415 182.525 168.33 182.289 168.288C180.504 167.786 179.534 165.894 178.048 164.785C177.09 164.101 175.94 163.738 174.763 163.747C173.586 163.756 172.442 164.137 171.494 164.836L173.558 165.543C173.758 165.59 173.939 165.698 174.073 165.854C174.422 166.364 173.642 166.922 173.536 167.532C173.398 168.323 174.369 168.781 175.114 169.081C175.859 169.381 176.652 170.287 176.086 170.857C171.844 171.069 169.055 166.005 164.864 165.315C163.803 165.141 162.718 165.263 161.644 165.226C155.08 165.003 149.953 159.042 143.453 158.107C141.995 157.942 140.526 157.907 139.062 158.002C138.131 158.035 137.157 158.08 136.351 158.548C135.546 159.017 134.99 160.056 135.379 160.903C133.728 160.569 132.148 159.944 130.715 159.058C131.069 159.414 131.32 159.86 131.442 160.347C131.565 160.834 131.554 161.345 131.41 161.827C128.773 161.508 126.104 161.545 123.476 161.938C123.7 162.784 124.011 163.604 124.403 164.386L120.621 165.511C121.619 166.095 121.751 167.725 120.859 168.461C122.119 168.288 123.184 167.203 124.454 167.288C125.286 167.344 125.99 167.895 126.645 168.41C127.3 168.926 128.032 169.454 128.866 169.451C129.699 169.448 130.555 168.615 130.251 167.839C133.813 167.832 137.361 168.285 140.808 169.186C141.081 169.229 141.334 169.358 141.531 169.553C141.887 169.991 141.576 170.624 141.395 171.159C141.214 171.693 141.43 172.527 141.985 172.423C141.273 172.752 141.49 173.822 141.886 174.5C142.282 175.177 142.732 176.084 142.202 176.663C142.064 176.814 141.875 176.912 141.74 177.066C141.34 177.519 141.556 178.245 141.919 178.728C142.283 179.211 142.781 179.619 142.963 180.196C143.146 180.772 142.755 181.574 142.158 181.475L141.122 178.919C140.394 179.338 139.8 179.954 139.408 180.697C140.734 182.621 140.158 185.589 138.208 186.877C137.211 187.535 136 187.76 134.88 188.174C133.76 188.588 132.625 189.311 132.295 190.459C131.725 192.442 131.029 194.237 131.24 196.289C131.628 200.074 132.253 203.831 133.113 207.538C133.338 208.511 133.678 209.604 134.584 210.023C134.231 206.757 134.01 203.48 133.923 200.192C134.547 200.375 135.255 200.634 135.474 201.247C135.656 201.754 135.426 202.305 135.373 202.842C135.35 203.37 135.414 203.898 135.562 204.405L138.333 216.263C138.562 217.246 138.844 218.311 139.652 218.916C140.168 219.303 140.851 219.456 141.294 219.926C141.641 220.294 141.795 220.814 142.155 221.171C143.17 222.178 145.213 221.402 146.112 222.514C146.369 222.832 146.471 223.248 146.694 223.591C147.473 224.794 149.356 224.686 150.363 225.706C151.011 226.364 151.162 227.347 151.347 228.253C151.812 230.52 152.928 232.933 155.1 233.732C155.782 233.983 156.532 234.057 157.168 234.409C157.804 234.761 158.302 235.55 157.993 236.208C157.463 237.336 157.672 238.8 157.172 239.942C156.26 242.021 152.918 242.083 152.028 244.172C151.833 244.629 151.781 245.145 151.534 245.576C151.231 246.104 150.67 246.444 150.354 246.965C149.757 247.953 150.215 249.241 150.849 250.206C151.484 251.171 152.309 252.083 152.478 253.226C152.656 254.433 152.057 255.607 151.879 256.815C151.49 259.451 153.135 261.965 155.038 263.829C155.618 264.398 156.252 264.969 156.51 265.738C156.848 266.742 156.471 267.828 156.376 268.883C156.141 271.468 157.617 274.08 156.954 276.589C156.482 278.372 155.032 279.694 153.96 281.195C152.945 282.636 152.253 284.28 151.931 286.013C151.609 287.746 151.664 289.529 152.093 291.238C152.318 292.109 152.641 292.962 152.719 293.857C152.858 295.455 152.205 297.036 152.296 298.638C152.417 300.755 153.817 302.881 153.051 304.858C153.388 306.857 155.003 308.258 156.727 309.323L159.816 311.232C160.408 311.598 161.028 311.973 161.72 312.033C162.413 312.093 163.196 311.73 163.373 311.057C161.832 310.209 160.246 309.321 159.178 307.923C158.111 306.525 157.698 304.467 158.68 303.007C159.135 302.331 159.893 301.616 159.588 300.86C159.414 300.427 158.934 300.188 158.715 299.775C158.374 299.132 158.785 298.337 159.311 297.832C159.836 297.328 160.499 296.933 160.839 296.289C161.021 295.926 161.088 295.516 161.031 295.115C160.974 294.713 160.795 294.338 160.519 294.04C161.21 293.986 161.882 293.786 162.491 293.455C163.074 293.082 163.499 292.37 163.319 291.703C164.303 292.128 165.491 292.541 166.388 291.954C167.105 291.484 167.338 290.541 167.357 289.684C167.376 288.828 167.241 287.952 167.469 287.127C169.793 287.921 172.179 288.525 174.601 288.933C174.593 287.693 174.102 286.505 173.233 285.621C174.347 285.749 175.682 284.758 176.314 283.832C176.946 282.905 177.183 281.766 177.282 280.649C177.281 280.354 177.353 280.063 177.492 279.803C177.722 279.457 178.164 279.332 178.568 279.234L184.714 277.733C185.074 277.667 185.42 277.539 185.737 277.355C186.477 276.866 186.679 275.864 186.629 274.978C186.579 274.093 186.345 273.206 186.481 272.33C186.887 269.709 190.116 268.679 191.718 266.565C192.346 265.735 192.713 264.742 193.071 263.765C193.456 262.715 193.822 261.472 193.199 260.544C192.603 259.654 191.328 259.445 190.682 258.59C190.089 257.807 190.145 256.636 189.451 255.94C188.821 255.309 187.804 255.3 187.026 254.864C185.656 254.095 185.222 252.134 183.766 251.542C182.945 251.209 181.867 251.345 181.316 250.651C180.831 250.039 181.059 249.159 181.157 248.384C181.287 247.173 181.043 245.952 180.457 244.884C179.871 243.817 178.972 242.954 177.882 242.413C177.049 242.021 176.084 241.798 175.48 241.104C174.869 240.4 174.787 239.391 174.392 238.547C173.754 237.187 172.366 236.367 171.057 235.63L165.733 232.632C164.788 232.1 163.518 231.595 162.716 232.326C162.457 232.617 162.239 232.943 162.068 233.294C161.671 233.903 161.091 234.37 160.411 234.628C159.732 234.887 158.988 234.923 158.286 234.732C158.044 233.777 157.442 232.952 156.606 232.429C156.074 232.1 155.459 231.903 154.975 231.505C154.717 231.271 154.509 230.987 154.364 230.669C154.22 230.352 154.141 230.009 154.134 229.66C154.127 229.312 154.19 228.965 154.321 228.642C154.453 228.319 154.648 228.026 154.896 227.782C155.396 227.29 155.719 226.649 155.818 225.955C155.916 225.262 155.783 224.555 155.44 223.945C154.721 222.791 153.377 222.173 152.049 221.883C151.924 221.04 152.737 220.365 153.509 220.002C154.28 219.639 155.181 219.323 155.549 218.554C156.127 217.344 154.786 215.909 153.445 215.931C152.104 215.954 150.971 216.922 150.111 217.951C149.617 218.541 149.157 219.18 148.522 219.614C147.886 220.048 147.011 220.237 146.348 219.847C145.409 219.294 145.366 217.976 145.438 216.889C145.534 215.43 145.634 213.952 146.104 212.568C146.573 211.183 147.463 209.88 148.772 209.23C150.905 208.171 153.447 209.071 155.65 209.977C155.288 209.215 155.716 208.233 156.456 207.83C156.838 207.648 157.258 207.562 157.68 207.58C158.102 207.597 158.514 207.717 158.879 207.929C159.523 208.271 160.034 208.819 160.329 209.485C160.747 210.461 160.622 211.578 160.852 212.614C161.081 213.65 161.959 214.731 162.997 214.512C163.893 214.322 164.329 213.281 164.384 212.366C164.44 211.451 164.271 210.497 164.595 209.639C165.214 208.004 167.241 207.498 168.973 207.252C170.704 207.006 172.726 206.587 173.45 204.995C173.553 204.672 173.708 204.367 173.908 204.094C174.156 203.873 174.457 203.72 174.781 203.648C180.106 201.988 185.517 200.314 191.093 200.179C191.383 200.172 191.388 200.274 191.677 200.287C192.12 200.178 192.044 199.499 191.752 199.149C191.459 198.8 191.027 198.472 191.059 198.017C191.083 197.683 191.357 197.427 191.498 197.123C191.843 196.375 191.116 195.382 190.299 195.484C190.046 194.822 191.041 194.425 191.75 194.435C193.879 194.463 195.999 194.719 198.073 195.197C198.32 195.228 198.549 195.339 198.726 195.513C199.001 195.85 198.799 196.382 198.458 196.651C198.116 196.919 197.677 197.023 197.291 197.222C196.866 197.449 196.512 197.787 196.268 198.201C196.023 198.615 195.896 199.089 195.902 199.57C196.811 200.421 197.808 201.315 199.044 201.466C200.28 201.616 201.712 200.593 201.464 199.373C201.233 198.237 199.745 197.564 199.791 196.406C199.845 195.049 201.963 194.442 201.919 193.085C201.899 192.491 201.451 192.014 201.149 191.502C200.798 190.879 200.643 190.164 200.705 189.452C200.768 188.74 201.044 188.063 201.498 187.51C200.787 187.433 200.105 187.187 199.508 186.792C198.912 186.397 198.42 185.864 198.072 185.24C197.434 184.069 197.131 182.426 195.839 182.096C194.654 181.793 193.246 182.871 192.269 182.134C192.029 181.953 191.804 181.662 191.507 181.708C191.405 181.739 191.312 181.793 191.233 181.865C191.155 181.938 191.095 182.027 191.056 182.126C190.391 183.379 190.43 185.039 189.369 185.981C188.215 187.007 186.334 186.65 185.047 187.504C184.349 187.967 183.907 188.736 183.241 189.245C182.575 189.754 181.44 189.872 181.029 189.141C181.479 188.642 181.747 188.006 181.789 187.335C181.831 186.664 181.644 185.999 181.259 185.449C180.826 184.946 180.332 184.5 179.789 184.121C179.198 183.641 178.66 183.098 178.186 182.502C177.939 182.235 177.772 181.905 177.702 181.548C177.688 181.122 177.827 180.706 178.094 180.374C178.627 179.623 179.355 179.032 180.199 178.665C181.044 178.298 181.972 178.168 182.885 178.29C183.68 178.408 184.559 178.702 185.234 178.266C185.591 178.035 185.867 177.61 186.292 177.597C186.555 177.619 186.804 177.726 187.001 177.901L189.564 179.733C189.841 179.969 190.175 180.128 190.533 180.195C190.712 180.222 190.894 180.18 191.044 180.078C191.193 179.975 191.299 179.82 191.339 179.643C191.385 179.143 190.721 178.704 190.926 178.245C191.008 178.101 191.132 177.985 191.281 177.913C192.629 177.114 194.136 176.624 195.696 176.477C197.255 176.329 198.828 176.529 200.301 177.06C200.49 177.756 199.717 178.292 199.097 178.66C198.476 179.028 197.834 179.82 198.295 180.375C198.495 180.563 198.739 180.698 199.005 180.766C199.68 181.065 200.303 181.47 200.85 181.966C201.712 182.681 202.543 183.431 203.344 184.216C203.442 183.566 203.553 182.884 203.959 182.368C204.365 181.851 205.172 181.588 205.694 181.986C206.198 182.37 206.271 183.205 206.856 183.449C207.635 183.774 208.298 182.675 208.175 181.84C208.052 181.004 207.565 180.193 207.743 179.368C207.864 178.811 208.268 178.194 207.928 177.737C207.801 177.592 207.643 177.48 207.465 177.407L197.157 172.249C196.545 171.943 195.584 171.764 195.365 172.412C195.243 172.774 195.465 173.232 195.223 173.527C194.963 173.842 194.464 173.662 194.057 173.682C193.425 173.713 192.939 174.312 192.819 174.933C192.746 175.564 192.813 176.203 193.016 176.805C192.394 176.303 191.337 175.938 190.715 175.437Z" fill="#3F3D56"/>
<path d="M184.704 163.676C184.083 163.25 183.346 163.025 182.593 163.032C181.84 163.038 181.108 163.277 180.495 163.714C180.247 163.898 180.002 164.18 180.078 164.479C180.187 164.908 180.777 164.922 181.22 164.908C181.875 164.868 182.526 165.04 183.077 165.398C183.419 165.639 183.692 165.967 184.037 166.203C184.2 166.335 184.395 166.419 184.603 166.448C184.81 166.476 185.022 166.448 185.214 166.365C185.553 166.174 185.69 165.764 185.799 165.39C185.853 165.271 185.88 165.14 185.877 165.009C185.875 164.877 185.843 164.748 185.784 164.63C185.657 164.497 185.501 164.397 185.327 164.337C184.954 164.15 184.657 163.838 184.489 163.456" fill="#3F3D56"/>
<path d="M188.947 163.72C188.796 163.667 188.633 163.654 188.475 163.682C188.318 163.71 188.17 163.778 188.046 163.879C187.922 163.981 187.827 164.113 187.768 164.262C187.71 164.412 187.691 164.573 187.714 164.732C188.149 164.997 188.632 165.172 189.136 165.246C189.389 165.279 189.645 165.236 189.873 165.123C190.102 165.01 190.291 164.831 190.418 164.611C189.818 164.549 189.261 164.266 188.858 163.817" fill="#3F3D56"/>
<path d="M202.649 165.709C201.285 165.61 199.915 165.673 198.566 165.895C199.063 166.272 199.425 166.798 199.6 167.396C199.775 167.994 199.753 168.633 199.537 169.218C199.421 169.432 199.358 169.672 199.353 169.916C199.394 170.287 199.754 170.525 200.077 170.711C200.646 171.082 201.275 171.355 201.935 171.516C202.267 171.594 202.612 171.588 202.94 171.498C203.269 171.408 203.569 171.238 203.815 171.003C203.988 170.762 204.175 170.532 204.375 170.314C205.577 169.285 207.608 171.538 208.859 170.57C209.299 170.229 209.459 169.57 209.969 169.346C210.225 169.259 210.499 169.236 210.766 169.28C212.669 169.444 214.562 169.711 216.437 170.082C217.325 170.257 218.544 170.273 218.803 169.406C215.726 167.82 212.211 167.295 208.805 167.913C207.576 168.14 205.83 168.859 205.003 167.848C204.693 167.469 204.92 166.756 204.475 166.302C204.019 165.838 203.262 165.754 202.649 165.709Z" fill="#3F3D56"/>
<path d="M212.741 170.795L214.188 171.533C213.909 171.439 213.614 171.405 213.322 171.434C213.029 171.463 212.747 171.554 212.492 171.701C212.238 171.848 212.018 172.048 211.846 172.287C211.675 172.525 211.557 172.798 211.499 173.086C212.795 173.981 214.493 173.967 215.986 174.469C217.478 174.97 218.924 176.558 218.234 177.974C218.026 178.402 217.635 178.777 217.644 179.253C217.65 179.587 217.857 179.882 217.928 180.208C218.075 180.888 217.606 181.557 217.05 181.975C216.495 182.393 215.832 182.664 215.316 183.129C214.032 184.287 214 186.257 214.065 187.985C214.043 188.625 214.16 189.261 214.409 189.851C214.943 190.896 216.182 191.332 217.304 191.675C218.122 191.925 219.073 192.157 219.777 191.671C220.694 191.037 220.596 189.605 221.324 188.759C221.986 187.992 223.128 187.911 224.141 187.913C225.997 187.916 227.864 188.002 229.7 187.726C231.979 187.383 234.276 186.486 236.521 187.007C237.151 187.153 237.765 187.411 238.412 187.414C239.058 187.417 239.775 187.065 239.909 186.432C240.024 185.891 239.689 185.373 239.455 184.873C239.22 184.372 239.123 183.679 239.567 183.35L245.675 183.946C245.588 182.707 245.695 181.14 246.85 180.685C247.267 180.521 247.753 180.548 248.135 180.314C248.786 179.915 248.808 178.91 248.371 178.284C247.934 177.658 247.194 177.328 246.481 177.056C244.001 176.109 241.406 175.508 238.82 174.911C233.765 173.742 228.71 172.574 223.655 171.405C222.638 171.17 221.505 170.751 220.488 170.827C219.626 170.891 218.919 171.262 217.976 171.191C216.234 171.06 214.494 170.304 212.741 170.795Z" fill="#3F3D56"/>
<path d="M236.673 190.85C236.524 190.78 236.354 190.77 236.198 190.822C236.084 190.892 235.998 190.999 235.953 191.124C235.691 191.659 235.64 192.274 235.812 192.845C235.902 193.127 236.066 193.379 236.286 193.576C236.507 193.773 236.776 193.907 237.066 193.965C237.781 194.077 238.46 193.636 239.177 193.532C240.282 193.373 244.632 193.886 242.211 191.503C241.376 190.682 240.6 190.969 239.718 191.095C238.7 191.292 237.647 191.207 236.673 190.85Z" fill="#3F3D56"/>
<path d="M265.577 185.149C265.202 185.189 264.851 185.352 264.579 185.612C264.449 185.747 264.376 185.927 264.375 186.114C264.373 186.301 264.444 186.481 264.572 186.618C264.684 186.699 264.811 186.759 264.945 186.793L266.296 187.229C266.87 187.414 267.558 187.746 267.552 188.35C267.547 188.797 267.135 189.255 267.361 189.642C267.465 189.784 267.608 189.893 267.772 189.957C268.188 190.202 268.652 190.353 269.133 190.399C270.201 190.42 269.856 189.664 270.324 189.215C271.041 188.529 270.814 189.004 271.793 188.775C272.516 188.606 273.503 188.206 273.241 187.166C272.787 185.357 267.102 184.87 265.577 185.149Z" fill="#3F3D56"/>
<path d="M292.704 192.163L291.882 192.039C290.029 191.761 288.164 191.481 286.29 191.519C286.949 192.029 287.674 192.447 288.445 192.761C288.877 192.909 289.294 193.097 289.692 193.322C290.386 193.768 290.981 194.573 291.802 194.487C292.31 194.433 292.596 194.003 293.045 193.861C293.355 193.763 294.423 193.768 294.584 193.625C295.886 192.469 293.416 192.27 292.704 192.163Z" fill="#3F3D56"/>
<path d="M295.138 196.767C293.909 197.052 292.72 197.486 291.597 198.06C291.124 198.302 290.619 198.627 290.505 199.146C290.353 199.836 290.961 200.438 291.509 200.883L293.729 202.687C294.161 202.343 294.053 201.665 293.859 201.148C293.665 200.631 293.43 200.03 293.719 199.559C294.048 199.021 294.817 199.028 295.443 199.1C296.463 199.218 299.083 199.991 299.222 198.332C299.385 196.378 296.272 196.504 295.138 196.767Z" fill="#3F3D56"/>
<path d="M264.354 301.148C263.911 301.775 263.65 302.59 263.891 303.32C264.16 304.139 265.022 304.664 265.882 304.726C266.75 304.744 267.602 304.491 268.319 303.999C268.96 303.6 269.535 303.104 270.025 302.529C270.74 301.62 271.346 300.629 271.829 299.578L273.81 295.68C274.252 294.809 275.064 291.981 273.103 292.411C272.567 292.529 270.921 294.205 270.272 294.627C269.104 295.389 268.703 296.341 267.887 297.437C266.864 298.811 265.334 299.759 264.354 301.148Z" fill="#3F3D56"/>
<path d="M347.723 348.175C347.231 347.798 346.767 347.386 346.335 346.942C345.403 348.218 344.692 349.642 344.231 351.154L348.646 350.106C349.31 349.948 350.087 349.687 350.264 349.027C350.293 348.948 350.3 348.862 350.284 348.779C350.268 348.696 350.23 348.619 350.174 348.556C350.099 348.498 350.01 348.461 349.917 348.448C349.341 348.332 348.748 348.46 348.161 348.499C347.575 348.538 346.925 348.46 346.521 348.033" fill="#3F3D56"/>
<path d="M367.365 355.245C366.916 355.238 366.467 355.266 366.022 355.329C365.023 355.52 364.187 356.19 363.235 356.547C362.324 356.888 361.332 356.933 360.36 356.975C360.033 357.13 360.018 357.628 360.243 357.913C360.497 358.174 360.823 358.353 361.179 358.428C362.094 358.715 363.061 359.005 363.996 358.793C364.535 358.63 365.058 358.416 365.557 358.153C366.727 357.64 368.009 357.449 369.275 357.272C369.727 357.236 370.17 357.12 370.581 356.928C371.486 356.439 371.846 355.383 370.899 354.853C370.134 354.424 368.219 355.219 367.365 355.245Z" fill="#3F3D56"/>
<path d="M377.88 352.03C378.064 351.565 378.14 351.065 378.102 350.568C378.065 350.07 377.914 349.587 377.663 349.156C377.376 350.108 377.052 351.117 376.286 351.751C375.741 352.203 375.031 352.41 374.456 352.824C373.882 353.239 373.449 354.034 373.805 354.647C374.05 354.978 374.395 355.22 374.788 355.34C375.734 355.739 376.848 356.131 377.74 355.623C378.226 355.345 378.574 354.826 379.113 354.675C379.304 354.652 379.488 354.588 379.651 354.485C379.926 354.24 379.741 353.757 379.435 353.551C379.128 353.345 378.742 353.289 378.432 353.088C378.123 352.887 377.922 352.415 378.185 352.157" fill="#3F3D56"/>
<path d="M372.308 312.46C371.758 312.436 371.217 312.314 370.711 312.098C369.886 311.685 369.397 310.832 368.85 310.089C367.546 308.331 365.719 307.032 363.63 306.378C361.729 305.788 359.649 305.747 357.876 304.842C357.801 305.56 358.236 306.241 358.771 306.726C359.306 307.21 359.949 307.562 360.489 308.042C361.352 308.814 361.907 309.872 362.054 311.021C362.119 311.55 362.098 312.099 362.284 312.599C362.665 313.619 363.795 314.147 364.859 314.38C366.246 314.685 367.782 314.705 368.901 315.579C369.758 316.248 370.206 317.297 370.824 318.191C371.442 319.085 372.439 319.905 373.506 319.698C372.632 319.106 371.969 318.25 371.616 317.255C371.262 316.26 371.236 315.177 371.541 314.166C372.428 314.514 375.061 315.242 375.369 313.652C375.629 312.305 373.131 312.545 372.308 312.46Z" fill="#3F3D56"/>
<path d="M357.296 319.685C357.714 318.844 358.826 318.317 358.799 317.378C358.781 316.729 358.177 316.236 357.558 316.041C356.939 315.846 356.272 315.854 355.644 315.691C355.244 315.552 354.835 315.44 354.421 315.356C353.124 315.201 351.985 316.277 350.685 316.401C349.895 316.476 349.114 316.191 348.32 316.172C346.518 316.127 345 317.402 343.46 318.339C340.975 319.844 338.095 320.567 335.193 320.416C334.178 320.361 333.113 320.205 332.177 320.604C330.938 321.133 330.285 322.466 329.693 323.676C328.057 327.018 326.115 330.202 323.89 333.186L327.719 334.845C328.447 335.16 329.203 335.482 329.996 335.469C330.583 335.422 331.162 335.3 331.718 335.106C333.807 334.519 335.996 334.378 338.143 334.691C339.226 334.849 340.325 335.139 341.19 335.809C342.055 336.479 342.639 337.6 342.417 338.672C342.878 338.662 343.332 338.779 343.732 339.008C344.132 339.237 344.462 339.57 344.686 339.972C345.125 340.787 345.297 341.719 345.178 342.637C345.125 343.211 345.041 343.893 345.48 344.268C345.838 344.573 346.368 344.51 346.829 344.604C348.393 344.924 349.145 347.074 350.736 347.203C352.443 347.34 353.538 345.041 355.25 345.013C356.233 344.997 357.402 345.701 358.077 344.986C358.673 344.357 358.16 343.282 358.478 342.476C358.871 341.483 360.2 341.398 361.254 341.232C364.888 340.657 367.654 336.79 367.024 333.164C366.65 331.016 365.272 329.011 365.537 326.847C365.741 325.182 366.905 323.508 366.254 321.963C365.922 321.176 365.151 320.572 365.064 319.723C365.009 319.188 365.244 318.668 365.286 318.133C365.329 317.597 365.041 316.941 364.504 316.927C362.946 316.888 361.187 321.229 360.097 322.092C358.439 323.403 356.335 321.614 357.296 319.685Z" fill="#3F3D56"/>
<path d="M333.126 302.945C332.671 302.662 332.17 302.369 331.639 302.43C331.107 302.491 330.628 303.107 330.909 303.563C333.92 304.31 336.95 305.062 339.785 306.322C343.052 307.773 346.084 309.902 349.599 310.552C347.814 309.411 345.964 308.376 344.057 307.453L340.897 305.845C340.055 305.397 339.188 304.994 338.303 304.638C336.44 303.928 334.85 304.014 333.126 302.945Z" fill="#3F3D56"/>
<path d="M339.111 293.435C338.87 293.343 338.569 293.236 338.38 293.412C338.199 293.58 338.261 293.889 338.129 294.097C337.949 294.382 337.519 294.344 337.21 294.209C336.901 294.073 336.584 293.871 336.254 293.944C336.082 294 335.932 294.112 335.828 294.261C335.723 294.41 335.67 294.589 335.676 294.77C335.697 295.134 335.798 295.488 335.973 295.808C336.24 296.46 336.58 297.079 336.986 297.655C337.791 298.707 339.072 299.472 339.399 300.756C339.428 300.995 339.514 301.224 339.648 301.423C339.901 301.709 340.347 301.677 340.725 301.621L342.047 301.426C342.279 301.411 342.504 301.337 342.701 301.212C343.072 300.927 343.058 300.365 342.947 299.91C342.836 299.455 342.666 298.969 342.843 298.535C343.16 297.763 344.274 297.755 344.893 297.194C345.517 296.63 345.497 295.664 345.779 294.871C346.11 293.944 347.059 292.888 346.309 291.906C345.672 291.072 344.736 291.402 343.963 291.895C342.331 292.934 341.313 294.277 339.111 293.435Z" fill="#3F3D56"/>
<path d="M350.285 281.388C350.462 282.267 351.161 282.964 351.381 283.833C351.619 284.776 351.263 285.801 351.548 286.731C351.841 287.684 352.773 288.415 352.803 289.412C352.836 290.501 351.757 291.499 352.086 292.537C352.153 292.711 352.256 292.868 352.387 293C352.518 293.132 352.676 293.235 352.849 293.303C353.022 293.371 353.207 293.402 353.393 293.395C353.579 293.387 353.762 293.341 353.929 293.259C354.251 293.064 354.484 292.75 354.578 292.385C354.672 292.02 354.62 291.632 354.433 291.305C354.18 290.892 353.725 290.613 353.544 290.164C353.456 289.909 353.426 289.638 353.458 289.37C353.515 288.588 353.761 287.831 354.176 287.165C354.306 287.003 354.384 286.806 354.401 286.599C354.38 286.186 353.879 286.012 353.572 285.734C352.876 285.103 353.227 283.964 353.627 283.113C353.361 283.68 351.539 282.058 351.415 281.658C351.169 280.862 351.782 279.643 351.908 278.88C350.827 279.063 350.068 280.313 350.285 281.388Z" fill="#3F3D56"/>
<path d="M325.586 286.968C325.323 286.419 324.867 285.791 324.268 285.903C323.811 285.989 323.541 286.509 323.576 286.973C323.649 287.435 323.841 287.87 324.133 288.234C324.963 289.449 325.902 290.601 326.55 291.921C327.71 294.285 327.881 297.07 329.232 299.329C329.489 299.836 329.904 300.245 330.415 300.494C330.94 300.701 331.645 300.531 331.863 300.011C332.042 299.582 331.848 299.096 331.641 298.68C331.149 297.69 330.57 296.742 330.128 295.728C329.906 295.323 329.828 294.855 329.908 294.4C330.032 293.959 330.566 293.614 330.961 293.847C330.481 293.564 330.347 292.589 329.633 292.206C329.036 291.886 328.768 292.235 328.106 291.692C326.842 290.654 326.269 288.393 325.586 286.968Z" fill="#3F3D56"/>
<path d="M371.821 254.257C371.442 254.014 371.078 253.751 370.728 253.468C369.749 252.836 368.103 253.213 367.924 254.364C367.806 255.129 368.348 255.825 368.542 256.575C368.829 257.686 368.331 258.846 367.728 259.823C367.56 260.131 367.332 260.402 367.057 260.62C366.7 260.831 366.306 260.971 365.897 261.033C364.214 261.425 362.624 262.14 361.213 263.137C361.066 263.225 360.945 263.35 360.863 263.5C360.703 263.859 361 264.242 361.123 264.616C361.395 265.447 360.782 266.282 360.586 267.135C360.545 267.251 360.534 267.376 360.554 267.498C360.574 267.621 360.626 267.735 360.703 267.832C360.946 268.059 361.355 267.911 361.591 267.676C362.373 266.895 362.418 265.292 363.51 265.122C363.717 265.09 363.948 265.119 364.115 264.994C364.381 264.796 364.304 264.367 364.49 264.092C364.768 263.679 365.396 263.839 365.868 263.997C366.681 264.27 367.535 264.399 368.393 264.378C368.722 264.394 369.048 264.313 369.332 264.145C369.724 263.869 369.846 263.351 369.921 262.878C370.292 260.52 370.208 258.112 369.674 255.785C370.488 256.138 371.38 256.498 372.237 256.268C372.717 256.14 373.42 255.544 373.363 254.984C373.273 254.097 372.501 254.598 371.821 254.257Z" fill="#3F3D56"/>
<path d="M259.861 235.392C259.805 235.964 259.739 236.564 259.41 237.035C259.081 237.506 258.396 237.781 257.914 237.468C257.54 237.225 257.423 236.744 257.223 236.345C256.111 234.13 252.167 234.084 251.793 231.633C251.641 230.632 252.224 229.656 252.216 228.644C252.196 228.055 251.981 227.489 251.605 227.035C251.229 226.581 250.713 226.265 250.138 226.137C249.601 226.062 249.056 226.067 248.52 226.15C244.993 226.501 241.435 226.37 237.943 225.761C237.288 225.614 236.619 225.545 235.948 225.557C234.412 225.658 233.09 226.672 232.033 227.791C230.977 228.91 230.065 230.189 228.821 231.095C227.514 232.047 225.93 232.52 224.417 233.089C223.848 233.259 223.327 233.562 222.898 233.973C222.468 234.449 222.296 235.098 222.139 235.719L220.227 243.273C219.981 244.245 219.733 245.253 219.915 246.239C220.141 247.47 220.999 248.481 221.461 249.644C221.93 250.838 221.972 252.158 221.581 253.379C221.422 253.87 221.203 254.441 221.498 254.864C221.689 255.084 221.94 255.242 222.221 255.319L232.098 259.077C233.835 259.738 235.738 260.549 236.507 262.242C236.87 263.041 237.044 264.088 237.864 264.4C238.216 264.534 238.609 264.488 238.978 264.564C239.908 264.755 240.507 265.676 240.791 266.582C241.218 267.962 241.163 269.446 240.636 270.79C240.302 271.633 239.789 272.399 239.48 273.251C238.301 276.494 240.272 280.179 239.367 283.508C238.834 285.467 237.381 287.02 235.979 288.487C236.796 291.114 234.753 293.706 234.586 296.453C234.427 299.059 235.912 301.564 235.709 304.167C235.616 305.359 235.229 306.746 236.052 307.612C236.426 307.95 236.88 308.186 237.371 308.298C240.274 309.176 243.344 309.354 246.329 308.818C247.731 308.565 249.264 308.025 249.869 306.735C250.358 305.695 250.158 304.316 250.995 303.53C251.982 302.603 253.655 303.183 254.879 302.606C256.865 301.668 256.402 298.65 257.626 296.825C258.725 295.185 260.987 294.8 262.439 293.463C263.028 292.878 263.524 292.206 263.909 291.47C264.9 289.732 265.733 287.908 266.395 286.021C266.759 284.863 267.182 283.724 267.662 282.609C270.63 276.329 278.418 273.805 282.365 268.089C282.741 267.544 283.069 266.766 282.631 266.269C282.356 266.024 282.006 265.882 281.638 265.865L276.804 265.102C276.204 265.007 275.57 264.898 275.108 264.503C274.646 264.108 274.459 263.325 274.89 262.896C276.097 261.69 274.993 259.405 274.695 257.725C273.893 253.2 272.662 248.763 271.019 244.471C270.901 244.241 270.862 243.978 270.907 243.723L272.217 244.151C272.235 242.418 272.006 240.45 270.618 239.412C269.836 238.827 268.831 238.66 267.88 238.44C265.155 237.81 262.397 236.572 259.861 235.392Z" fill="#3F3D56"/>
<path d="M278.541 201.638C279.027 202.587 279.585 203.605 280.563 204.029C282.29 204.778 284.117 203.296 285.405 201.923C285.316 202.342 285.395 202.78 285.624 203.142C285.853 203.505 286.214 203.764 286.631 203.864C287.095 203.918 287.566 203.875 288.013 203.738C292.129 202.825 296.408 202.949 300.464 204.098C300.514 203.78 300.68 203.492 300.93 203.289C301.18 203.086 301.497 202.983 301.818 202.999C302.689 203.075 303.224 204.001 303.407 204.856C303.59 205.711 303.59 206.64 304.06 207.376C304.531 208.112 305.76 208.442 306.241 207.713C306.704 207.012 306.092 206.124 305.557 205.477C305.023 204.831 304.564 203.787 305.206 203.248C308.827 203.48 312.47 203.715 315.995 204.574C316.582 204.766 317.202 204.836 317.817 204.778C318.424 204.671 319.017 204.201 319.04 203.586C318.229 203.545 317.448 203.262 316.798 202.775C316.147 202.288 315.656 201.619 315.388 200.851C320.335 201.852 325.572 203 329.195 206.514C329.389 207.766 326.505 207.926 326.917 209.123C327.049 209.506 327.486 209.672 327.872 209.792C330.831 210.709 333.808 211.63 336.88 212.033C338.002 212.18 339.155 212.263 340.196 212.708C341.93 213.451 343.12 215.096 344.775 215.999C345.449 216.367 346.254 216.606 346.983 216.363C347.711 216.12 348.248 215.242 347.908 214.554C350.046 213.404 352.693 214.609 354.663 216.027C356.634 217.444 358.35 219.307 360.625 220.155C362.256 220.763 364.076 220.804 365.641 221.566C366.625 222.045 367.455 222.785 368.385 223.361C370.144 224.451 372.201 224.924 374.181 225.525C379.231 227.062 383.957 229.511 388.125 232.751C388.68 233.128 389.145 233.623 389.488 234.199C389.79 234.796 389.802 235.59 389.342 236.076L384.681 233.954C384.878 234.99 386.02 235.488 386.893 236.078C387.766 236.669 388.457 238.023 387.638 238.686C386.69 238.051 385.441 238.821 384.636 239.629C383.83 240.437 382.854 241.401 381.743 241.143C380.748 240.911 379.805 239.734 378.95 240.294C379.51 241.662 379.916 243.089 380.16 244.548C380.41 246.045 380.379 247.832 379.184 248.768C378.989 248.94 378.739 249.039 378.479 249.048C377.732 249.022 377.526 248.039 377.176 247.378C376.735 246.545 375.837 246.085 375.073 245.533C374.309 244.981 373.585 244.12 373.78 243.198C373.901 242.624 374.349 242.187 374.718 241.731C375.338 240.962 375.773 240.061 375.989 239.097C376.162 238.321 376.178 237.466 375.785 236.775C375.392 236.084 374.496 235.641 373.767 235.959C373.427 236.107 373.102 236.407 372.742 236.318C372.106 236.16 371.941 234.923 371.326 235.151C371.27 235.567 371.07 235.95 370.76 236.233C368.869 237.11 366.71 235.882 364.628 235.782C363.626 235.779 362.627 235.909 361.659 236.17C361.313 236.212 360.987 236.357 360.723 236.584C360.343 236.986 360.436 237.669 360.773 238.107C361.147 238.517 361.607 238.839 362.12 239.05C364.363 240.187 366.57 241.58 368.002 243.648C369.434 245.716 369.933 248.592 368.662 250.763L365.277 244.933C364.91 246.863 364.466 248.776 363.943 250.671C363.866 251.049 363.708 251.405 363.48 251.715C362.932 252.356 361.956 252.342 361.117 252.275C360.884 252.253 360.649 252.281 360.428 252.356C360.207 252.431 360.004 252.552 359.833 252.711C359.662 252.87 359.527 253.064 359.436 253.279C359.345 253.494 359.3 253.726 359.305 253.96C359.321 254.959 359.816 255.878 360.252 256.777C360.688 257.677 361.086 258.67 360.893 259.651C360.7 260.632 359.667 261.501 358.728 261.157C358.017 260.897 357.666 260.091 357.548 259.342C357.429 258.594 357.457 257.807 357.154 257.112C356.236 255.01 352.863 254.82 352.124 252.649C351.697 252.92 351.346 253.297 351.105 253.742C350.864 254.187 350.741 254.687 350.747 255.193C351.441 254.996 352.145 255.57 352.432 256.232C352.718 256.893 352.728 257.638 352.9 258.338C353.133 259.283 353.669 260.216 353.464 261.167C353.345 261.514 353.249 261.869 353.176 262.23C353.128 262.828 353.488 263.372 353.682 263.94C354.134 265.262 353.659 266.76 352.802 267.863C351.944 268.965 350.751 269.749 349.575 270.503C347.521 271.82 345.439 273.117 343.186 274.052C342.543 274.319 341.867 274.569 341.372 275.059C340.878 275.549 340.624 276.364 340.995 276.954C340.632 276.868 339.94 276.858 339.577 276.772C339.867 275.302 340.257 273.853 340.745 272.436C339.531 271.35 337.486 272.724 337.218 274.331C336.95 275.938 337.713 277.511 338.124 279.088C338.424 280.24 338.527 281.513 338.005 282.584C337.483 283.655 336.175 284.404 335.064 283.974C333.297 283.291 333.293 280.468 331.584 279.65C331.436 279.567 331.265 279.535 331.097 279.56C330.789 279.629 330.639 279.972 330.536 280.272C330.031 281.741 329.518 283.272 329.702 284.815C329.971 287.072 331.681 289.397 330.601 291.398C328.451 289.523 327.967 286.362 328.155 283.515C328.344 280.669 329.06 277.83 328.742 274.995C327.647 275.788 326.214 274.456 325.796 273.171C325.399 271.953 325.314 270.652 324.942 269.426C324.57 268.2 323.81 266.979 322.597 266.566C321.325 266.133 319.952 266.694 318.727 267.245C317.719 267.698 316.683 268.172 315.935 268.985C314.847 270.168 314.555 271.85 314.075 273.384C313.556 275.042 312.692 276.701 311.201 277.593C309.71 278.485 307.488 278.303 306.553 276.838C306.064 276.074 305.996 275.123 305.953 274.217C305.742 269.849 305.781 265.473 306.068 261.109C305.586 261.985 304.415 262.954 303.789 262.175C303.656 261.975 303.566 261.75 303.527 261.513C302.781 258.606 300.499 256.33 298.017 254.643C295.534 252.956 292.771 251.704 290.344 249.938C288.985 248.947 287.743 247.804 286.644 246.531C286.152 246.938 285.779 247.471 285.565 248.073C285.351 248.675 285.304 249.324 285.429 249.95C285.721 251.189 286.904 252.199 288.176 252.165C288.834 252.147 289.463 251.876 290.12 251.842C290.777 251.809 291.55 252.143 291.644 252.794C291.735 253.417 291.164 253.974 291.185 254.603C291.216 255.562 292.518 256.012 292.749 256.943C292.921 257.636 292.41 258.341 291.78 258.678C291.151 259.014 290.42 259.087 289.725 259.247C287.468 259.765 285.552 261.21 283.437 262.153C281.323 263.097 278.623 263.451 276.865 261.944C278.055 259.64 275.664 257.003 275.834 254.415C275.889 253.563 276.227 252.739 276.201 251.886C276.164 250.651 275.387 249.583 274.813 248.489C274.12 247.151 273.702 245.687 273.583 244.184C273.465 242.681 273.649 241.17 274.124 239.739C274.46 238.747 274.94 237.779 274.995 236.732C275.05 235.686 274.514 234.503 273.495 234.256C271.17 233.692 268.228 233.025 267.59 230.719C267.363 229.896 267.472 228.818 268.249 228.463C268.797 228.212 269.434 228.435 269.993 228.659L275.019 230.666C276.194 231.136 277.474 231.613 278.695 231.281C279.917 230.949 280.853 229.4 280.107 228.377C279.562 227.63 278.295 227.295 278.341 226.371C278.38 225.602 279.414 225.015 279.157 224.289C278.974 223.768 278.245 223.687 277.731 223.888C277.217 224.09 276.775 224.475 276.233 224.583C275.283 224.774 274.416 224.079 273.608 223.544C272.8 223.009 271.616 222.641 270.947 223.341C270.198 224.124 270.757 225.596 270.011 226.382C269.025 227.422 267.085 226.106 265.893 226.9C264.525 227.812 265.716 230.106 264.926 231.548C264.424 231.638 263.908 231.597 263.427 231.428C262.947 231.259 262.518 230.968 262.183 230.584C261.858 230.191 261.646 229.718 261.568 229.214C261.491 228.711 261.551 228.195 261.743 227.723C262.029 227.054 262.596 226.451 262.543 225.726C262.501 225.139 262.06 224.67 261.645 224.254L257.423 220.019C256.705 220.75 256.984 221.995 257.534 222.859C258.083 223.723 258.866 224.48 259.103 225.477C259.238 226.159 259.107 226.866 258.738 227.455C258.369 228.044 257.789 228.47 257.116 228.646C257.03 228.675 256.939 228.684 256.848 228.675C256.758 228.665 256.671 228.635 256.593 228.589C256.526 228.518 256.475 228.435 256.441 228.344C256.407 228.254 256.391 228.157 256.396 228.06C256.166 225.533 255.483 222.909 253.697 221.106C251.911 219.304 248.781 218.662 246.807 220.255C246.337 220.633 245.958 221.11 245.524 221.528C243.217 223.749 239.561 224.058 236.511 223.085C236.205 223.014 235.927 222.857 235.708 222.633C235.31 222.146 235.544 221.424 235.793 220.847L236.852 218.398C237.065 217.906 237.322 217.369 237.819 217.167C238.518 216.883 239.258 217.404 239.986 217.604C240.543 217.737 241.127 217.696 241.66 217.486C242.193 217.276 242.649 216.908 242.965 216.43C243.265 215.942 243.426 215.382 243.431 214.809C243.436 214.236 243.285 213.673 242.994 213.18C242.752 212.771 242.419 212.25 242.717 211.88C242.821 211.784 242.944 211.711 243.079 211.668C243.214 211.625 243.356 211.612 243.497 211.629C244.909 211.628 246.314 211.928 247.725 211.852C249.135 211.777 250.642 211.223 251.328 209.989C251.539 209.61 251.723 209.132 252.145 209.036C252.35 209.012 252.558 209.029 252.756 209.086C253.48 209.188 254.215 209.016 254.818 208.603C255.42 208.19 255.847 207.567 256.013 206.856C256.751 206.604 257.52 207.169 257.981 207.798C258.443 208.426 258.793 209.181 259.459 209.587C260.699 210.343 262.346 209.528 263.744 209.927C264.331 210.094 264.879 210.478 265.489 210.439C266.107 210.399 266.603 209.939 267.152 209.651C267.7 209.364 268.527 209.331 268.795 209.89L269.182 207.289C269.813 207.658 270.515 207.888 271.242 207.963C271.969 208.038 272.703 207.957 273.396 207.725L269.457 204.984C269.316 204.902 269.197 204.787 269.112 204.648C268.893 204.214 269.363 203.773 269.734 203.459C270.62 202.708 271.168 201.207 270.286 200.45C269.685 199.933 268.779 200.082 268.006 200.26L264.305 201.114C264.028 201.691 264.669 202.249 265.01 202.79C265.216 203.117 265.319 203.499 265.304 203.886C265.289 204.272 265.158 204.645 264.927 204.956C264.696 205.267 264.377 205.5 264.011 205.626C263.645 205.752 263.25 205.764 262.877 205.661C263.008 205.994 263.062 206.353 263.035 206.71C263.009 207.068 262.902 207.415 262.723 207.725L260.534 207.259C260.28 207.237 260.044 207.116 259.878 206.921C259.708 206.651 259.842 206.303 259.877 205.986C259.96 205.219 259.394 204.502 258.703 204.16C258.012 203.817 257.218 203.77 256.449 203.726C256.111 203.748 255.776 203.643 255.511 203.431C255.371 203.269 255.288 203.066 255.275 202.852C255.18 201.993 255.737 201.177 256.435 200.668C257.133 200.16 257.968 199.882 258.75 199.516C260.623 198.638 262.214 197.254 263.342 195.519C264.665 195.367 266.082 195.048 267.406 194.896C269.493 194.501 271.648 194.697 273.629 195.46L277.605 196.695C278.782 197.06 279.989 197.441 280.952 198.209C281.916 198.978 282.595 200.232 282.328 201.435C282.312 201.576 282.261 201.71 282.179 201.825C282.097 201.94 281.987 202.032 281.86 202.093C281.681 202.133 281.495 202.122 281.322 202.061C280.207 201.78 279.656 201.919 278.541 201.638Z" fill="#3F3D56"/>
<path d="M243.05 204.94C243.249 204.837 243.416 204.681 243.532 204.49C243.649 204.299 243.71 204.079 243.71 203.855C243.372 203.599 242.97 203.441 242.548 203.401C242.125 203.36 241.7 203.439 241.32 203.627C241.014 203.798 240.732 204.009 240.481 204.254C239.707 204.959 238.946 205.848 238.973 206.894C238.968 207.006 238.985 207.117 239.023 207.223C239.061 207.328 239.12 207.424 239.196 207.506C239.317 207.6 239.457 207.666 239.607 207.698C240.186 207.865 240.774 207.997 241.369 208.093C241.734 208.152 242.172 208.171 242.404 207.882C242.708 207.502 242.416 206.889 242.672 206.475C242.814 206.298 242.992 206.154 243.195 206.053C243.296 206.002 243.384 205.928 243.451 205.837C243.518 205.746 243.563 205.641 243.583 205.529C243.593 205.303 243.305 205.09 243.135 205.24" fill="#3F3D56"/>
<path d="M247.178 201.918C246.698 201.651 246.177 201.464 245.637 201.365C245.522 201.328 245.4 201.321 245.281 201.344C245.16 201.389 245.057 201.473 244.989 201.583C244.775 201.906 244.691 202.299 244.753 202.682C244.816 203.065 245.02 203.41 245.325 203.649C245.501 203.747 245.661 203.872 245.798 204.019C246.142 204.492 245.656 205.114 245.579 205.693C245.492 206.344 245.944 207.042 245.654 207.631C245.425 208.095 244.79 208.331 244.733 208.845C244.672 209.384 245.278 209.726 245.785 209.918C246.07 210.057 246.39 210.111 246.706 210.074C247.043 209.963 247.327 209.73 247.504 209.422C247.899 208.851 248.181 208.21 248.336 207.533C248.421 207.23 248.431 206.91 248.365 206.602C248.27 206.345 248.155 206.097 248.019 205.859C247.36 204.415 248.906 202.993 247.178 201.918Z" fill="#3F3D56"/>
<path opacity="0.8" d="M351.628 330.338C351.628 330.338 288.17 264.594 253.003 263.383C253.003 263.383 181.391 250.744 168.58 264.857C168.58 264.857 166.488 189.466 159.106 184.835" stroke="#6C63FF" stroke-width="2" stroke-miterlimit="10"/>
<path opacity="0.8" d="M168.58 264.857C191.201 234.515 317.104 230.098 317.104 230.098C299.578 229.509 253.003 263.383 253.003 263.383C253.003 263.383 196.378 190.395 159.106 184.835C159.106 184.835 315.587 235.766 351.628 330.338" stroke="#6C63FF" stroke-width="2" stroke-miterlimit="10"/>
<path d="M158.14 188.17C159.982 188.703 161.907 187.643 162.44 185.801C162.974 183.959 161.913 182.034 160.072 181.5C158.23 180.967 156.305 182.028 155.772 183.869C155.238 185.711 156.299 187.637 158.14 188.17Z" fill="#6C63FF"/>
<path d="M167.614 268.192C169.456 268.725 171.381 267.664 171.914 265.823C172.448 263.981 171.388 262.055 169.546 261.522C167.705 260.989 165.779 262.049 165.246 263.891C164.712 265.733 165.773 267.658 167.614 268.192Z" fill="#6C63FF"/>
<path d="M316.138 233.433C317.979 233.966 319.905 232.905 320.438 231.064C320.971 229.222 319.911 227.296 318.07 226.763C316.228 226.23 314.303 227.29 313.769 229.132C313.236 230.974 314.296 232.899 316.138 233.433Z" fill="#6C63FF"/>
<path d="M350.663 333.673C352.504 334.206 354.429 333.146 354.963 331.304C355.496 329.462 354.436 327.537 352.594 327.003C350.753 326.47 348.828 327.53 348.294 329.372C347.761 331.214 348.821 333.14 350.663 333.673Z" fill="#6C63FF"/>
<path d="M252.037 266.718C253.878 267.251 255.804 266.191 256.337 264.349C256.871 262.507 255.81 260.582 253.969 260.048C252.127 259.515 250.202 260.576 249.669 262.417C249.135 264.259 250.195 266.185 252.037 266.718Z" fill="#6C63FF"/>
</g>
<path opacity="0.1" d="M427.432 879C309.239 879 213.425 866.044 213.425 850.062C213.425 834.081 309.239 821.125 427.432 821.125C545.625 821.125 641.439 834.081 641.439 850.062C641.439 866.044 545.625 879 427.432 879Z" fill="#6C63FF"/>
<path d="M374.615 462.503C374.615 462.503 381.24 449.434 380.346 445.55C379.452 441.665 385.007 433.368 385.007 433.368L384.648 419.603C384.648 419.603 385.415 421.01 389.414 422.242C389.752 421.799 390.118 421.362 390.498 420.947C391.946 419.44 393.557 418.097 395.3 416.943L402.34 401.756L409.148 391.334C409.148 391.334 419.885 369.518 430.974 364.705L432.72 361.292C432.662 361.258 432.619 361.203 432.6 361.14C432.58 361.076 432.585 361.007 432.614 360.947L434.388 357.477C434.42 357.417 434.473 357.371 434.536 357.348C434.6 357.324 434.67 357.325 434.733 357.351L436.43 354.029C437.078 349.724 438.77 345.644 441.358 342.143C441.534 341.897 441.724 341.671 441.907 341.439L439.148 341.341C436.726 341.249 434.022 341.038 432.396 339.23C431.813 338.555 431.383 337.763 431.136 336.907C430.926 336.236 430.789 335.545 430.727 334.845C430.727 334.74 430.727 334.634 430.727 334.536C430.727 334.296 430.727 334.062 430.727 333.832C430.727 333.642 430.727 333.459 430.727 333.269C430.727 333.079 430.727 332.966 430.727 332.819C430.727 332.671 430.805 332.333 430.847 332.115C430.847 332.023 430.847 331.932 430.903 331.84C430.962 331.565 431.035 331.292 431.121 331.024C431.142 330.971 431.159 330.917 431.171 330.862C431.269 330.581 431.375 330.299 431.495 330.025C431.514 329.989 431.53 329.951 431.544 329.912C431.671 329.638 431.811 329.37 431.959 329.11L432.001 329.025C432.053 328.916 432.112 328.81 432.178 328.709C434.085 325.711 437.437 323.959 440.626 322.375C443.602 320.811 446.657 319.402 449.778 318.153C461.385 313.802 474.206 313.983 485.685 318.659C486.818 319.089 487.892 319.661 488.881 320.362C490.259 321.528 491.436 322.912 492.366 324.458L497.822 332.516C498.585 333.496 499.182 334.594 499.589 335.767C500.61 339.595 497.407 343.431 497.766 347.379C497.949 349.342 499.005 351.144 499.209 353.107C499.47 355.641 498.294 358.083 497.146 360.37L489.339 375.852C489.754 377.886 490.212 379.969 490.711 381.981C494.309 385.697 495.52 387.724 495.851 388.822L495.956 388.878C496.669 389.338 497.282 389.936 497.759 390.637L505.179 397.843C505.179 397.843 518.077 401.193 520.76 405.437C520.76 405.437 541.001 404.55 540.825 432.805C540.825 432.805 541.719 443.403 542.233 444.818C542.747 446.232 542.233 460.532 542.233 460.532L542.472 489.498C542.472 489.498 543.247 504.86 542.472 510.335C541.698 515.81 540.804 536.648 540.804 536.648C540.804 536.648 535.967 556.958 537.755 564.199C539.473 571.131 537.755 586.289 534.939 586.353C534.404 587.457 533.792 587.999 533.123 587.69C532.832 587.564 532.533 587.455 532.229 587.366V604.671C532.229 604.671 535.714 628.914 531.806 633.524C534.397 637.211 537.438 643.503 538.213 645.156L565.6 643.686L569.085 644.664L572.281 645.558L574.218 690.083L573.443 690.139L573.499 691.497L571.669 691.631L574.218 736.473L536.305 739.59C537.974 743.327 539.91 747.332 540.663 747.719C542.071 748.422 545.141 746.311 545.859 747.184C546.577 748.056 548.724 749.126 551.231 748.591C553.737 748.056 555.349 750.885 555.349 750.885C555.349 750.885 554.983 751.209 554.434 751.807C558.503 751.315 563.65 753.496 566.445 754.904C567.698 755.537 568.48 756.009 568.48 756.009H575.872L571.81 781.913L568.944 783.869L568.24 804.278C568.24 804.278 556.778 839.598 551.526 839.366C551.185 839.354 550.851 839.268 550.546 839.115C550.241 838.962 549.973 838.745 549.759 838.479C546.943 835.228 548.893 824.06 548.893 824.06V805.467C548.893 805.467 544.599 803.581 545.077 802.166C545.556 800.752 538.15 785.277 537.488 783.869C537.469 783.858 537.454 783.841 537.444 783.821C537.434 783.801 537.429 783.779 537.431 783.757C537.431 782.166 534.207 780.4 534.39 779.696C534.573 778.992 526.505 774.573 525.942 770.688C525.378 766.804 520.035 768.922 520.035 768.922L513.234 761.111C513.029 770.632 512.642 777.296 511.973 778.985C508.749 787.114 507.496 799.83 507.496 799.83C507.496 799.83 509.467 809.542 507.496 812.722C506.285 814.665 503.469 816.748 501.511 818.472C503.546 824.637 503.257 837.74 503.257 837.74V845.27L488.212 849.492C488.212 849.492 487.74 845.728 487.022 845.728C486.304 845.728 476.75 853.025 476.75 853.025C476.75 853.025 439.971 853.497 430.664 853.025C427.144 852.849 426.186 851.336 426.728 849.507C427.622 846.459 432.642 842.511 437.106 842.209C444.273 841.737 453.348 834.207 453.348 834.207C453.348 834.207 452.644 832.554 456.453 830.203C459.086 828.585 466.373 822.033 470.879 818.197C470.667 817.909 470.449 817.62 470.245 817.311C470.245 817.311 476.335 808.866 475.075 805.122C473.814 801.378 475.617 795.974 475.617 795.974C475.617 795.974 479.017 785.551 479.017 780.252C479.017 776.895 479.524 757.803 479.89 744.263L476.75 744.524L476.687 743.172L475.279 743.299L461.965 744.524L462.374 730.301C455.96 727.486 450.623 724.875 448.413 723.208C440.894 717.578 434.444 717.205 434.444 717.205C434.444 717.205 419.223 709.084 416.893 705.727C414.562 702.37 414.781 678 414.781 678L416.034 625.769V625.726C416.034 625.726 417.104 600.476 419.258 595.001C420.047 592.975 421.997 586.219 424.13 578.506C422.904 578.38 421.666 578.432 420.455 578.661C420.378 580.547 420.328 581.842 420.328 582.285C420.328 585.283 416.034 587.83 416.034 587.83L419.075 520.272V474.311C409.698 477.295 387.02 478.224 387.02 478.224C370.68 477.365 374.615 462.503 374.615 462.503ZM463.071 404.459H463.12C462.787 402.687 462.352 400.937 461.818 399.216L463.071 404.459ZM524.618 636.177C519.063 637.092 512.649 636.824 512.163 635.748C512.114 635.642 512.051 635.452 511.966 635.206C511.79 635.515 511.621 635.832 511.445 636.156L511.987 646.346V646.578L530.292 645.593C529.011 640.139 526.589 637.479 524.618 636.177ZM463.599 687.592L464.071 671.089C463.254 668.049 462.522 665.29 461.895 662.926C461.613 664.889 461.374 666.698 461.191 668.366C459.459 684.024 462.015 687.078 463.599 687.592ZM411.5 440.173C412.549 440.574 416.541 438.062 420.328 435.458C420.328 434.979 420.293 434.508 420.272 434.051C419.737 423.276 437.289 416.57 442.661 415.331C443.964 414.995 445.229 414.523 446.434 413.924C449.296 412.507 452.079 410.935 454.77 409.216L454.7 409.012C454.7 409.012 461.627 404.627 461.775 399.159C460.197 394.186 458.204 389.353 455.819 384.712C455.685 384.437 455.538 384.149 455.397 383.874C452.123 382.857 449.067 381.239 446.385 379.103C445.308 393.178 424.933 405.289 424.933 405.289L422.757 408.808L422.244 409.638C423.342 410.285 423.87 410.806 423.497 411.109C421.948 412.347 418.202 419.357 416.653 422.319C416.231 423.122 415.949 423.621 415.949 423.621C415.949 423.621 412.619 432.678 410.711 440.257C410.965 440.152 411.244 440.122 411.514 440.173H411.5Z" fill="url(#paint1_linear)"/>
<path d="M403.629 403.67L403.868 403.987L404.685 405.078L420.35 416.141L423.673 410.68L425.785 407.161C425.785 407.161 457.009 388.442 443.583 370.398C430.157 352.354 410.317 393.269 410.317 393.269L403.629 403.67Z" fill="#FFC5D3"/>
<path d="M435.134 359.59C435.2 359.458 435.361 359.405 435.493 359.472C435.625 359.538 435.678 359.699 435.612 359.831L433.87 363.288C433.804 363.42 433.643 363.473 433.511 363.406C433.379 363.34 433.326 363.179 433.392 363.047L435.134 359.59Z" fill="#3A3768"/>
<path d="M453.01 364.423L453.017 364.427C453.089 364.463 453.119 364.552 453.082 364.625L452.563 365.656C452.526 365.729 452.437 365.758 452.364 365.721L452.358 365.718C452.285 365.682 452.256 365.593 452.292 365.52L452.812 364.489C452.848 364.416 452.937 364.387 453.01 364.423Z" fill="#3A3768"/>
<path d="M451.588 366.864C451.63 366.781 451.732 366.747 451.815 366.789C451.899 366.831 451.932 366.933 451.89 367.016L450.905 368.971C450.863 369.054 450.762 369.088 450.678 369.046C450.595 369.004 450.562 368.902 450.603 368.819L451.588 366.864Z" fill="#3A3768"/>
<path d="M450.07 369.907C450.11 369.827 450.208 369.795 450.287 369.835C450.367 369.875 450.399 369.973 450.359 370.052L449.359 372.039C449.318 372.118 449.221 372.15 449.141 372.11C449.061 372.07 449.029 371.973 449.069 371.893L450.07 369.907Z" fill="#3A3768"/>
<path d="M440.597 352.802L453.752 359.424C454.53 359.816 454.843 360.764 454.451 361.541L439.523 391.17C439.132 391.948 438.183 392.261 437.406 391.869L424.251 385.247C423.473 384.856 423.16 383.908 423.552 383.13L438.48 353.501C438.871 352.724 439.82 352.411 440.597 352.802Z" fill="#3A3768"/>
<path d="M442.28 354.684C442.356 354.721 442.423 354.773 442.478 354.836C442.533 354.9 442.575 354.974 442.601 355.054C442.628 355.134 442.638 355.218 442.631 355.302C442.624 355.386 442.601 355.467 442.562 355.542L442.506 355.662C442.467 355.737 442.443 355.819 442.437 355.903C442.43 355.988 442.44 356.073 442.466 356.153C442.492 356.234 442.534 356.308 442.589 356.372C442.644 356.437 442.712 356.489 442.787 356.527L449.56 359.933C449.635 359.972 449.717 359.995 449.801 360.002C449.884 360.009 449.969 359.999 450.049 359.973C450.129 359.946 450.203 359.905 450.266 359.849C450.33 359.794 450.382 359.727 450.419 359.652L450.483 359.532C450.52 359.457 450.572 359.39 450.635 359.334C450.699 359.279 450.772 359.237 450.852 359.21C450.932 359.183 451.016 359.173 451.1 359.178C451.184 359.184 451.266 359.206 451.341 359.244L452.658 359.912C452.802 359.983 452.931 360.082 453.037 360.203C453.142 360.325 453.223 360.466 453.273 360.618C453.324 360.771 453.343 360.932 453.331 361.093C453.318 361.253 453.274 361.409 453.2 361.552L438.81 390.102C438.662 390.392 438.406 390.611 438.097 390.712C437.789 390.814 437.453 390.789 437.162 390.644L425.348 384.698C425.059 384.55 424.84 384.294 424.738 383.986C424.637 383.677 424.661 383.341 424.806 383.051L439.204 354.486C439.276 354.343 439.376 354.214 439.498 354.109C439.62 354.004 439.762 353.924 439.915 353.874C440.068 353.824 440.23 353.804 440.39 353.816C440.551 353.828 440.708 353.872 440.851 353.945L442.28 354.684Z" fill="#6C63FF"/>
<path d="M446.216 356.846L447.996 357.742C448.121 357.804 448.171 357.957 448.108 358.082C448.045 358.207 447.893 358.257 447.768 358.194L445.988 357.298C445.863 357.235 445.813 357.083 445.876 356.958C445.939 356.833 446.091 356.783 446.216 356.846Z" fill="#E6E8EC"/>
<path d="M445.294 356.928C445.134 356.928 445.005 356.799 445.005 356.64C445.005 356.481 445.134 356.351 445.294 356.351C445.453 356.351 445.582 356.481 445.582 356.64C445.582 356.799 445.453 356.928 445.294 356.928Z" fill="#E6E8EC"/>
<path d="M432.142 464.191L436.543 582.222C436.543 582.222 421.758 577.295 419.47 580.99C417.181 584.685 421.934 521.876 421.934 521.876L432.142 464.191Z" fill="#5F5570"/>
<path opacity="0.15" d="M432.142 464.191L436.543 582.222C436.543 582.222 421.758 577.295 419.47 580.99C417.181 584.685 421.934 521.876 421.934 521.876L432.142 464.191Z" fill="black"/>
<path d="M431.438 853.236C440.591 853.708 476.729 853.236 476.729 853.236C476.729 853.236 486.121 845.967 486.825 845.967C487.529 845.967 487.994 849.718 487.994 849.718L502.779 845.495V837.993C502.779 837.993 503.25 816.635 498.794 815.706C494.337 814.777 474.617 815.706 474.617 815.706C473.913 815.474 460.536 828.141 456.784 830.485C453.031 832.828 453.735 834.475 453.735 834.475C453.735 834.475 444.815 841.977 437.775 842.448C433.388 842.744 428.453 846.67 427.573 849.718C427.038 851.554 427.988 853.06 431.438 853.236Z" fill="#BC8487"/>
<path opacity="0.1" d="M431.438 853.236C440.591 853.708 476.729 853.236 476.729 853.236C476.729 853.236 486.121 845.967 486.825 845.967C487.529 845.967 487.994 849.718 487.994 849.718L502.779 845.495V838.141L488.937 843.152L477.905 849.718H427.573C427.038 851.554 427.988 853.06 431.438 853.236Z" fill="black"/>
<g opacity="0.1">
<path d="M472.533 842.216C472.533 842.216 461.268 831.428 453.735 834.475L472.533 842.216Z" fill="black"/>
<path d="M472.533 842.216C472.533 842.216 461.268 831.428 453.735 834.475" stroke="black" stroke-miterlimit="10"/>
</g>
<path d="M543.852 802.567C543.381 803.975 547.605 805.854 547.605 805.854V824.383C547.605 824.383 545.69 835.509 548.457 838.753C548.664 839.017 548.927 839.232 549.226 839.384C549.525 839.535 549.853 839.621 550.189 839.633C555.349 839.865 566.614 804.679 566.614 804.679L567.318 784.348L570.134 782.399L574.126 756.593H566.846C566.846 756.593 566.079 756.121 564.847 755.488C561.327 753.693 553.955 750.562 549.949 753.545L536.34 784.193C536.34 784.193 544.317 801.16 543.852 802.567Z" fill="#BC8487"/>
<path opacity="0.1" d="M548.457 838.753C548.664 839.017 548.927 839.232 549.226 839.384C549.525 839.535 549.853 839.621 550.189 839.633C555.349 839.865 566.614 804.679 566.614 804.679L567.318 784.348L570.134 782.399L574.126 756.593H566.846C566.846 756.593 566.079 756.121 564.847 755.488L563.094 781.927L562.157 804.679C562.157 804.679 553.315 829.45 548.457 838.753Z" fill="black"/>
<path d="M417.885 706.452C420.174 709.794 435.134 717.887 435.134 717.887C435.134 717.887 441.471 718.239 448.863 723.869C452.686 726.783 465.971 732.56 477.905 737.465C489.05 742.046 499.026 745.861 499.026 745.861L510.516 759.232L519.267 769.415C519.267 769.415 524.548 767.303 525.076 771.174C525.604 775.045 533.524 779.443 533.348 780.147C533.172 780.85 536.34 782.61 536.34 784.193C536.34 785.776 548.133 772.757 547.957 764.84C547.781 756.923 553.941 751.469 553.941 751.469C553.941 751.469 552.357 748.655 549.893 749.182C547.429 749.71 545.317 748.655 544.613 747.775C543.909 746.895 540.916 749.006 539.508 748.303C538.1 747.599 532.468 733.7 532.468 733.7L510.523 718.985L466.873 689.738L464.859 688.387C464.859 688.387 459.051 691.047 461.409 669.252C461.867 665.03 462.634 659.9 463.803 653.651C471.019 615.121 445.146 610.723 445.146 610.723L422.441 618.288L416.984 626.733V626.775L415.752 678.809C415.752 678.809 415.597 703.109 417.885 706.452Z" fill="#433A59"/>
<path opacity="0.1" d="M478.081 731.082C478.081 731.082 478.011 733.581 477.905 737.465C489.05 742.046 499.026 745.861 499.026 745.861L510.516 759.232C510.706 748.148 510.664 733.749 510.516 718.992L466.866 689.745C472.266 709.752 478.081 731.082 478.081 731.082Z" fill="black"/>
<path opacity="0.1" d="M417.005 626.754V626.796L451.151 627.458C451.151 627.458 457.136 650.857 458.016 655.783C458.234 656.993 459.558 662.166 461.43 669.273C461.888 665.051 462.655 659.921 463.824 653.672C471.04 615.142 445.167 610.744 445.167 610.744L422.462 618.309L417.005 626.754Z" fill="black"/>
<path d="M506.947 562.89L511.347 647.338C511.347 647.338 514.515 771.371 511.347 779.464C508.179 787.557 506.947 800.224 506.947 800.224C506.947 800.224 508.883 809.901 506.947 813.067C505.01 816.234 498.85 819.753 499.026 821.512C499.202 823.271 480.193 832.772 470.336 817.642C470.336 817.642 476.321 809.197 475.089 805.502C473.857 801.808 475.617 796.354 475.617 796.354C475.617 796.354 478.961 785.974 478.961 780.674C478.961 775.375 480.193 731.061 480.193 731.061C480.193 731.061 461.008 660.688 460.128 655.762C459.248 650.836 453.264 627.436 453.264 627.436L417.005 626.733C417.005 626.733 418.061 601.574 420.174 596.12C422.286 590.666 432.67 550.73 432.67 550.73L506.947 562.89Z" fill="#433A59"/>
<path d="M567.459 645.677L570.606 646.578L570.733 649.689L476.377 650.906V649.681L567.459 645.677Z" fill="#7B728F"/>
<path d="M456.164 386.689C469.893 414.522 461.367 420.342 460.008 421.06C462.916 419.708 500.709 401.96 495.738 397.456C492.507 394.522 489.74 381.756 488.113 372.608C487.149 367.147 486.586 362.973 486.586 362.973L446.927 370.243C450.771 376.436 453.827 381.89 456.164 386.689Z" fill="#FFC5D3"/>
<path opacity="0.1" d="M403.84 403.987L404.657 405.078L420.35 416.141L423.673 410.68C418.836 407.865 404.333 402.939 404.333 402.939L403.84 403.987Z" fill="black"/>
<path d="M389.372 429.357C390.78 434.283 414.541 429.357 414.541 429.357L417.005 425.486C417.005 425.486 417.252 424.994 417.667 424.191C419.188 421.243 422.87 414.262 424.391 413.023C426.327 411.44 403.622 403.699 403.622 403.699L396.666 418.829C394.951 419.981 393.369 421.319 391.949 422.819C390.189 424.726 388.731 427.112 389.372 429.357Z" fill="#E5E8EF"/>
<path d="M428.798 431.623C428.798 431.623 414.717 442.728 412.605 441.925C410.493 441.123 376.347 464.17 376.347 464.17C376.347 464.17 372.475 478.949 388.492 479.828C388.492 479.828 422.462 478.421 423.87 473.495C425.278 468.569 428.798 431.623 428.798 431.623Z" fill="#5F5570"/>
<path opacity="0.1" d="M467.168 409.3L482.481 425.134L461.008 561.659L452.559 556.732C452.559 556.732 430.734 566.409 428.974 557.436C427.214 548.464 427.7 513.101 427.7 513.101L430.558 449.216C430.558 449.216 440.591 426.872 440.591 426.169C440.591 425.465 455.059 414.557 455.059 414.557L461.888 409.279L467.168 409.3Z" fill="black"/>
<path d="M467.168 407.189L482.481 423.023L461.008 559.547L452.559 554.621C452.559 554.621 430.734 564.298 428.974 555.325C427.214 546.352 427.7 510.99 427.7 510.99L430.558 447.105C430.558 447.105 440.591 424.761 440.591 424.058C440.591 423.354 455.059 412.446 455.059 412.446L461.888 407.168L467.168 407.189Z" fill="#E5E8EF"/>
<path opacity="0.1" d="M466.288 409.476L470.512 418.097L466.288 422.552C466.288 422.552 451.151 453.108 454.144 471.229L450.975 530.87L440.767 540.898L432.67 531.553L436.543 477.365C436.543 477.365 446.927 432.678 457.84 418.78L461.008 406.464L466.288 409.476Z" fill="black"/>
<path d="M466.288 408.069L470.512 416.689L466.288 421.144C466.288 421.144 451.151 451.7 454.144 469.821L450.975 529.463L440.767 539.491L432.67 530.145L436.543 475.958C436.543 475.958 446.927 431.271 457.84 417.372L461.008 405.057L466.288 408.069Z" fill="#BC8487"/>
<path opacity="0.1" d="M446.927 370.243C450.771 376.436 453.799 381.89 456.164 386.689C458.656 387.424 461.24 387.796 463.838 387.794C472.54 387.794 477.553 381.777 482.481 375.387C483.608 373.938 487.311 374.275 488.113 372.572C487.149 367.111 486.586 362.938 486.586 362.938L446.927 370.243Z" fill="black"/>
<path d="M436.852 360.109C436.853 366.533 439.147 372.747 443.322 377.631C447.497 382.515 453.279 385.749 459.627 386.751C465.975 387.754 472.473 386.459 477.951 383.099C483.429 379.74 487.527 374.536 489.509 368.425C491.491 362.314 491.226 355.697 488.761 349.764C486.296 343.831 481.794 338.972 476.065 336.061C470.335 333.151 463.755 332.379 457.507 333.887C451.26 335.394 445.755 339.08 441.985 344.282C438.648 348.886 436.852 354.425 436.852 360.109Z" fill="#FFC5D3"/>
<path opacity="0.1" d="M472.449 420.208L494.626 393.466C494.626 393.466 496.675 392.643 489.754 385.401C489.754 385.401 464.338 405.205 462.761 408.568C461.184 411.932 472.449 420.208 472.449 420.208Z" fill="black"/>
<path d="M473.153 418.801L495.33 392.059C495.33 392.059 497.379 391.235 490.458 383.994C490.458 383.994 465.042 403.797 463.465 407.161C461.888 410.525 473.153 418.801 473.153 418.801Z" fill="#E5E8EF"/>
<path d="M417.005 588.999C417.005 588.999 421.23 586.465 421.23 583.474C421.23 580.483 423.342 538.259 423.342 538.259C423.342 538.259 426.44 513.059 429.678 493.03C431.579 481.229 433.529 471.215 434.909 469.23L434.966 469.146C438.662 464.396 437.958 441.172 461.015 407.217C460.705 407.428 452.757 413.002 446.934 415.803C445.749 416.398 444.506 416.87 443.224 417.21C437.944 418.442 420.695 425.127 421.223 435.859C421.751 446.591 419.991 471.222 419.991 471.222V521.701L417.005 588.999Z" fill="#5F5570"/>
<path d="M417.005 425.486C417.005 425.486 409.613 445.894 410.669 450.996C411.725 456.099 393.596 476.155 393.596 476.155L376.347 464.191C376.347 464.191 382.86 451.172 381.979 447.302C381.099 443.431 386.556 435.162 386.556 435.162L386.204 421.454C386.204 421.454 389.372 427.4 417.005 425.486Z" fill="#5F5570"/>
<path opacity="0.1" d="M441.985 344.282L455.362 344.789C456.668 344.78 457.97 344.944 459.234 345.275C464.014 346.745 466.218 351.826 466.394 356.394C466.57 360.961 469.21 366.077 474.328 366.478C474.838 366.565 475.361 366.448 475.786 366.154C476.11 365.809 476.326 365.376 476.405 364.909C477.139 362.247 478.274 359.713 479.771 357.393C481.883 357.773 483.446 359.779 483.995 361.876C484.544 363.973 484.396 366.183 484.389 368.357C484.383 371.119 484.649 373.874 485.185 376.584C487.367 373.752 488.965 370.514 489.885 367.06C490.804 363.605 491.028 360.002 490.542 356.46C490.057 352.918 488.872 349.508 487.056 346.428C485.24 343.348 482.83 340.66 479.966 338.519C477.101 336.379 473.84 334.828 470.371 333.959C466.902 333.089 463.294 332.917 459.758 333.454C456.222 333.99 452.828 335.223 449.773 337.082C446.719 338.941 444.064 341.389 441.964 344.282H441.985Z" fill="black"/>
<path d="M459.931 344.571C458.667 344.24 457.365 344.077 456.058 344.085L439.816 343.48C437.437 343.389 434.782 343.177 433.184 341.411C432.611 340.737 432.188 339.947 431.945 339.096C431.527 337.736 431.404 336.302 431.585 334.89C431.766 333.479 432.246 332.122 432.994 330.911C434.874 327.921 438.169 326.182 441.309 324.578C444.231 323.017 447.232 321.608 450.299 320.355C461.693 316.031 474.308 316.212 485.572 320.862C486.685 321.289 487.74 321.854 488.712 322.544C490.07 323.707 491.226 325.086 492.134 326.626L497.477 334.676C498.214 335.659 498.783 336.758 499.16 337.928C500.167 341.749 497.048 345.57 497.372 349.504C497.555 351.46 498.59 353.255 498.78 355.211C499.033 357.738 497.878 360.137 496.745 362.439L487.353 381.376C485.836 376.96 485.068 372.322 485.079 367.653C485.079 365.479 485.262 363.269 484.685 361.172C484.107 359.075 482.573 357.069 480.461 356.689C478.96 359.008 477.823 361.543 477.088 364.205C477.01 364.673 476.795 365.106 476.469 365.451C476.044 365.745 475.521 365.862 475.011 365.774C469.865 365.373 467.267 360.306 467.077 355.69C466.887 351.073 464.711 346.042 459.931 344.571Z" fill="#8F7080"/>
<path d="M570.606 646.578L564.03 644.699L464.88 650.097L475.793 651.504L570.606 646.578Z" fill="#7B728F"/>
<path opacity="0.1" d="M570.606 646.578L564.03 644.699L464.88 650.097L475.793 651.504L570.606 646.578Z" fill="black"/>
<path d="M462.184 745.101L475.265 743.883L479.855 743.461V670.737L478.644 653.855L478.377 650.097H464.88L462.184 745.101Z" fill="#7B728F"/>
<path opacity="0.1" d="M465.76 742.518L476.194 741.364L479.855 740.963V672.011L478.891 656.008L478.679 652.44H467.915L465.76 742.518Z" fill="black"/>
<path d="M537.312 646.578C537.312 646.578 530.799 632.299 528.068 631.856C525.336 631.413 520.323 631.856 520.323 631.856L520.767 635.994C520.767 635.994 527.455 636.522 529.567 647.69L537.312 646.578Z" fill="#7B728F"/>
<path opacity="0.1" d="M537.312 646.578C537.312 646.578 530.799 632.299 528.068 631.856C525.336 631.413 520.323 631.856 520.323 631.856L520.767 635.994C520.767 635.994 527.455 636.522 529.567 647.69L537.312 646.578Z" fill="black"/>
<path d="M512.051 630.364C512.051 630.364 494.541 639.069 496.829 649.273L506.334 648.746C506.334 648.746 510.91 633.531 514.515 632.736C518.12 631.94 512.051 630.364 512.051 630.364Z" fill="#7B728F"/>
<path d="M446.927 492.517V493.03L447.279 551.63C447.279 551.63 456.256 600.892 458.72 602.827C461.184 604.762 515.219 599.484 515.219 599.484L539.684 434.635C539.86 406.485 519.971 407.365 519.971 407.365C517.331 403.143 504.658 399.8 504.658 399.8L497.618 392.938L497.393 392.622C496.925 391.925 496.322 391.329 495.619 390.869C494.168 390.032 493.246 391.137 492.718 392.228C492.48 392.74 492.296 393.275 492.169 393.825C463.648 414.733 446.927 492.517 446.927 492.517Z" fill="#5F5570"/>
<path opacity="0.1" d="M447.631 493.22V493.734C456.481 477.548 490.578 416.225 499.906 413.171L496.316 410.708C496.316 410.708 493.922 409.3 498.322 407.893C498.322 407.893 505.186 408.772 505.362 400.504L498.097 393.326L496.323 391.573L493.422 392.931C493.184 393.444 493 393.979 492.873 394.529C464.352 415.437 447.631 493.22 447.631 493.22Z" fill="black"/>
<path d="M446.927 492.517V493.03C455.777 476.845 489.874 415.521 499.202 412.467L495.612 410.004C495.612 410.004 493.218 408.597 497.618 407.189C497.618 407.189 504.482 408.069 504.658 399.8L497.393 392.622L495.619 390.869L492.718 392.228C492.48 392.74 492.296 393.275 492.169 393.825C463.648 414.733 446.927 492.517 446.927 492.517Z" fill="#433A59"/>
<path opacity="0.1" d="M434.198 469.906L434.254 469.821C437.951 465.071 437.247 441.848 460.304 407.893C459.994 408.104 452.046 413.677 446.223 416.478L447.849 421.841L444.329 423.72L434.198 469.906Z" fill="black"/>
<path d="M434.902 469.202L434.958 469.118C438.655 464.367 437.951 441.144 461.008 407.189C460.698 407.4 452.75 412.974 446.927 415.775L448.553 421.137L445.033 423.016L434.902 469.202Z" fill="#433A59"/>
<path opacity="0.1" d="M462.022 401.77L463.465 407.865C463.465 407.865 462.409 413.966 456.08 414.494L455.059 411.587C455.059 411.587 461.888 407.21 462.022 401.77Z" fill="black"/>
<path d="M462.022 401.067L463.465 407.161C463.465 407.161 462.409 413.262 456.08 413.79L455.059 410.884C455.059 410.884 461.888 406.506 462.022 401.067Z" fill="#E5E8EF"/>
<path opacity="0.1" d="M471.125 651.082L475.265 743.883L479.855 743.461V670.737L478.644 653.855L471.125 651.082Z" fill="black"/>
<path d="M569.662 686.923L572.479 737.12L476.729 745.101L472.533 651.082L569.662 686.923Z" fill="#7B728F"/>
<path opacity="0.1" d="M571.775 692.321L569.902 647.985L471.829 652.489L476.497 699.358L571.775 692.321Z" fill="black"/>
<path d="M572.479 690.913L570.606 646.578L472.533 651.082L477.201 697.951L572.479 690.913Z" fill="#7B728F"/>
<path d="M519.443 690.969H531.236V704.692H519.443V690.969Z" fill="#C3BBC8"/>
<path d="M529.476 601.068L531.236 605.818C531.236 605.818 534.932 631.856 530.356 635.023C525.78 638.19 512.227 638.365 511.523 636.782C510.819 635.199 505.89 617.253 505.89 617.253C505.89 617.253 501.49 630.448 499.202 629.393C496.914 628.337 504.482 603.256 504.482 603.256L529.476 601.068Z" fill="#FFC5D3"/>
<path opacity="0.1" d="M531.236 581.363V606.522C531.236 606.522 512.579 610.04 504.482 603.96C504.482 603.96 512.051 579.604 509.235 573.446C506.418 567.288 531.236 581.363 531.236 581.363Z" fill="black"/>
<path d="M531.236 580.659V605.818C531.236 605.818 512.579 609.336 504.482 603.256C504.482 603.256 512.051 578.9 509.235 572.742C506.418 566.585 531.236 580.659 531.236 580.659Z" fill="#E5E8EF"/>
<path opacity="0.1" d="M533.348 433.403L538.276 436.042C538.276 436.042 539.156 446.598 539.684 448.006C540.212 449.413 539.684 463.664 539.684 463.664L539.924 492.517C539.924 492.517 540.684 507.823 539.924 513.277C539.163 518.731 538.312 539.491 538.312 539.491C538.312 539.491 533.552 559.723 535.312 566.937C537.072 574.15 535.136 590.336 532.144 588.928C529.152 587.521 501.518 582.067 500.11 581.011C498.702 579.956 499.406 570.103 500.11 568.872C500.814 567.64 505.039 550.927 504.687 547.056C504.335 543.186 505.919 509.23 505.919 509.23C505.919 509.23 503.278 472.988 502.222 464.543C501.166 456.099 504.335 431.292 507.151 430.94C509.967 430.588 518.211 411.411 533.348 433.403Z" fill="black"/>
<path d="M534.756 431.996L539.684 434.635C539.684 434.635 540.564 445.191 541.092 446.598C541.621 448.006 541.092 462.256 541.092 462.256L541.332 491.109C541.332 491.109 542.092 506.415 541.332 511.869C540.571 517.323 539.72 538.083 539.72 538.083C539.72 538.083 534.96 558.316 536.72 565.529C538.48 572.742 536.544 588.928 533.552 587.521C530.56 586.113 502.926 580.659 501.518 579.604C500.11 578.548 500.814 568.696 501.518 567.464C502.222 566.233 506.447 549.519 506.095 545.649C505.743 541.778 507.327 507.823 507.327 507.823C507.327 507.823 504.687 471.581 503.631 463.136C502.574 454.691 505.743 429.884 508.559 429.533C511.375 429.181 519.619 410.004 534.756 431.996Z" fill="#5F5570"/>
<g opacity="0.1">
<path opacity="0.1" d="M481.524 354.05C483.636 354.43 485.199 356.436 485.748 358.533C486.297 360.63 486.149 362.84 486.142 365.014C486.129 369.683 486.895 374.321 488.409 378.737L497.808 359.8C497.991 359.427 498.181 359.04 498.364 358.653C497.929 359.956 497.39 361.222 496.752 362.439L487.353 381.376C485.839 376.96 485.073 372.322 485.086 367.653C485.086 365.479 485.262 363.269 484.692 361.172C484.122 359.075 482.58 357.069 480.468 356.689C479.786 357.757 479.177 358.869 478.644 360.018C479.359 357.92 480.326 355.916 481.524 354.05Z" fill="black"/>
<path opacity="0.1" d="M432.825 331.214C432.412 332.945 432.47 334.756 432.994 336.457C433.24 337.309 433.664 338.098 434.24 338.772C435.838 340.538 438.465 340.75 440.872 340.841L457.108 341.446C458.416 341.438 459.721 341.601 460.987 341.932C465.76 343.403 467.971 348.484 468.147 353.051C468.323 357.618 470.963 362.734 476.081 363.135C476.591 363.222 477.114 363.106 477.539 362.812C477.377 363.269 477.222 363.734 477.088 364.219C477.016 364.687 476.802 365.122 476.476 365.465C476.051 365.759 475.528 365.875 475.018 365.788C469.865 365.387 467.274 360.32 467.084 355.704C466.894 351.087 464.697 346.056 459.924 344.585C458.657 344.254 457.353 344.091 456.044 344.099L439.809 343.494C437.43 343.403 434.775 343.192 433.177 341.425C432.601 340.751 432.176 339.962 431.931 339.11C431.532 337.803 431.405 336.427 431.559 335.069C431.713 333.711 432.144 332.399 432.825 331.214Z" fill="black"/>
</g>
<path opacity="0.1" d="M459.262 619.85C459.262 619.85 453.165 616.683 450.813 616.859C448.462 617.035 427.348 643.876 427.348 643.876L459.262 619.85Z" fill="black"/>
<path opacity="0.1" d="M521.802 438.203C521.802 438.203 532.947 442.96 532.651 446.246C532.355 449.533 521.802 438.203 521.802 438.203Z" fill="black"/>
<path opacity="0.1" d="M527.23 453.755C527.23 453.755 538.924 468.702 536.34 469.202C533.756 469.702 527.23 453.755 527.23 453.755Z" fill="black"/>
<path opacity="0.1" d="M488.113 476.155C488.113 476.155 487.043 509.582 495.619 513.805L488.113 476.155Z" fill="black"/>
<path opacity="0.1" d="M532.679 565.409C532.679 565.409 524.428 560.723 522.534 561.659C520.64 562.594 532.679 565.409 532.679 565.409Z" fill="black"/>
<path opacity="0.1" d="M531.236 571.891C531.236 571.891 526.026 572.264 523.555 571.187C521.084 570.11 531.236 571.891 531.236 571.891Z" fill="black"/>
<path opacity="0.1" d="M406.867 448.801C406.867 448.801 400.404 467.358 396.68 467.358L406.867 448.801Z" fill="black"/>
<path opacity="0.1" d="M498.773 804.214C498.773 804.214 486.649 800.928 484.861 804.214C483.073 807.501 498.773 804.214 498.773 804.214Z" fill="black"/>
<path opacity="0.1" d="M537.312 755.488C537.312 755.488 540.332 760.111 536.34 761.519C532.348 762.926 537.312 755.488 537.312 755.488Z" fill="black"/>
<path opacity="0.1" d="M456.784 690.969C456.784 690.969 447.631 699.119 443.308 699.358C438.986 699.597 456.784 690.969 456.784 690.969Z" fill="black"/>
<path opacity="0.1" d="M108.96 826.917C98.4886 826.917 90 825.483 90 823.715C90 821.946 98.4886 820.513 108.96 820.513C119.431 820.513 127.92 821.946 127.92 823.715C127.92 825.483 119.431 826.917 108.96 826.917Z" fill="#6C63FF"/>
<path opacity="0.1" d="M686.04 779.253C675.569 779.253 667.08 777.819 667.08 776.051C667.08 774.282 675.569 772.849 686.04 772.849C696.511 772.849 705 774.282 705 776.051C705 777.819 696.511 779.253 686.04 779.253Z" fill="#6C63FF"/>
<path opacity="0.1" d="M122.154 764.897C111.682 764.897 103.194 763.463 103.194 761.695C103.194 759.926 111.682 758.493 122.154 758.493C132.625 758.493 141.113 759.926 141.113 761.695C141.113 763.463 132.625 764.897 122.154 764.897Z" fill="#6C63FF"/>
<path opacity="0.1" d="M612.707 796.431C602.236 796.431 593.748 794.997 593.748 793.229C593.748 791.461 602.236 790.027 612.707 790.027C623.179 790.027 631.667 791.461 631.667 793.229C631.667 794.997 623.179 796.431 612.707 796.431Z" fill="#6C63FF"/>
<path opacity="0.1" d="M206.666 799.183C196.195 799.183 187.707 797.749 187.707 795.981C187.707 794.212 196.195 792.779 206.666 792.779C217.138 792.779 225.626 794.212 225.626 795.981C225.626 797.749 217.138 799.183 206.666 799.183Z" fill="#6C63FF"/>
<path d="M639.348 720.984C639.348 722.764 639.144 724.207 638.898 724.207C638.651 724.207 638.454 722.799 638.454 720.984C638.454 719.168 638.701 720.041 638.947 720.041C639.193 720.041 639.348 719.203 639.348 720.984Z" fill="#FFD037"/>
<path d="M641.805 723.109C640.242 723.961 638.884 724.474 638.764 724.263C638.644 724.052 639.82 723.179 641.383 722.328C642.946 721.476 642.326 722.096 642.446 722.328C642.566 722.56 643.375 722.264 641.805 723.109Z" fill="#FFD037"/>
<line x1="1435.5" y1="520" x2="1435.5" y2="838" stroke="white" stroke-width="17"/>
<defs>
<linearGradient id="paint0_linear" x1="53.2208" y1="129.5" x2="1292.27" y2="558.676" gradientUnits="userSpaceOnUse">
<stop stop-color="#2CF8EB"/>
<stop offset="0.188734" stop-color="#2AE1EB" stop-opacity="0.85"/>
<stop offset="0.367327" stop-color="#27B8E9" stop-opacity="0.86"/>
<stop offset="0.644247" stop-color="#217CE7" stop-opacity="0.71"/>
<stop offset="0.834879" stop-color="#1D50E6" stop-opacity="0.875899"/>
<stop offset="1" stop-color="#1A2EE4"/>
</linearGradient>
<linearGradient id="paint1_linear" x1="475.032" y1="853.236" x2="475.032" y2="315" gradientUnits="userSpaceOnUse">
<stop stop-color="#808080" stop-opacity="0.25"/>
<stop offset="0.54" stop-color="#808080" stop-opacity="0.12"/>
<stop offset="1" stop-color="#808080" stop-opacity="0.1"/>
</linearGradient>
<clipPath id="clip0">
<rect width="341.281" height="253.54" fill="white" transform="translate(124.535 81) rotate(16.1528)"/>
</clipPath>
</defs>
</svg>
