<svg width="414" height="898" viewBox="0 0 414 898" fill="none" xmlns="http://www.w3.org/2000/svg">
<rect width="414" height="896" fill="url(#paint0_linear)"/>
<path d="M155.5 411.5C150.7 470.7 55.1667 528.833 8 550.5H-6V-8.5L221 -2.5C229.5 12.5 223.8 56.2 133 111C42.2 165.8 63.2194 237.833 85.0791 267C120.01 308.24 159.108 367.006 155.5 411.5Z" fill="white"/>
<g clip-path="url(#clip0)">
<path opacity="0.1" d="M169.734 551C109.58 551 60.8165 544.407 60.8165 536.275C60.8165 528.142 109.58 521.549 169.734 521.549C229.887 521.549 278.651 528.142 278.651 536.275C278.651 544.407 229.887 551 169.734 551Z" fill="#6C63FF"/>
<path d="M142.853 339.059C142.853 339.059 146.225 332.409 145.77 330.432C145.315 328.455 148.142 324.233 148.142 324.233L147.959 317.229C147.959 317.229 148.35 317.945 150.385 318.572C150.557 318.346 150.743 318.124 150.937 317.913C151.674 317.146 152.493 316.462 153.38 315.875L156.963 308.147L160.428 302.844C160.428 302.844 165.893 291.742 171.536 289.293L172.425 287.556C172.396 287.539 172.374 287.511 172.364 287.479C172.354 287.446 172.356 287.411 172.371 287.381L173.274 285.615C173.29 285.585 173.317 285.561 173.349 285.549C173.382 285.537 173.418 285.538 173.45 285.551L174.313 283.861C174.643 281.67 175.504 279.594 176.821 277.812C176.911 277.687 177.008 277.572 177.101 277.454L175.696 277.404C174.464 277.357 173.088 277.25 172.26 276.33C171.963 275.987 171.745 275.583 171.619 275.148C171.512 274.806 171.442 274.455 171.411 274.099C171.411 274.045 171.411 273.991 171.411 273.941C171.411 273.819 171.411 273.7 171.411 273.583C171.411 273.486 171.411 273.393 171.411 273.296C171.411 273.2 171.411 273.142 171.411 273.067C171.411 272.992 171.45 272.82 171.472 272.709C171.472 272.663 171.472 272.616 171.5 272.569C171.53 272.429 171.567 272.291 171.611 272.154C171.622 272.127 171.63 272.1 171.637 272.072C171.687 271.928 171.74 271.785 171.801 271.646C171.811 271.627 171.82 271.608 171.826 271.588C171.891 271.449 171.963 271.313 172.038 271.18L172.059 271.137C172.086 271.081 172.116 271.028 172.149 270.976C173.12 269.45 174.826 268.559 176.449 267.753C177.963 266.957 179.518 266.24 181.107 265.604C187.014 263.39 193.539 263.482 199.381 265.862C199.958 266.081 200.505 266.372 201.008 266.729C201.709 267.322 202.308 268.026 202.781 268.813L205.558 272.913C205.946 273.412 206.25 273.971 206.458 274.568C206.977 276.516 205.347 278.467 205.53 280.476C205.623 281.476 206.16 282.392 206.264 283.391C206.397 284.681 205.798 285.923 205.214 287.087L201.241 294.965C201.452 296 201.685 297.06 201.939 298.084C203.77 299.975 204.387 301.007 204.555 301.565L204.609 301.594C204.971 301.828 205.283 302.132 205.526 302.489L209.303 306.156C209.303 306.156 215.867 307.861 217.232 310.02C217.232 310.02 227.534 309.569 227.444 323.947C227.444 323.947 227.899 329.34 228.161 330.06C228.422 330.78 228.161 338.056 228.161 338.056L228.283 352.796C228.283 352.796 228.677 360.613 228.283 363.399C227.889 366.185 227.434 376.789 227.434 376.789C227.434 376.789 224.972 387.124 225.882 390.809C226.756 394.336 225.882 402.05 224.449 402.082C224.176 402.644 223.865 402.92 223.524 402.762C223.376 402.698 223.224 402.643 223.069 402.598V411.403C223.069 411.403 224.843 423.74 222.854 426.086C224.173 427.962 225.721 431.164 226.115 432.005L240.053 431.257L241.827 431.755L243.454 432.209L244.439 454.867L244.045 454.895L244.074 455.586L243.142 455.654L244.439 478.473L225.144 480.059C225.993 481.961 226.978 483.999 227.362 484.195C228.078 484.554 229.641 483.479 230.006 483.923C230.372 484.367 231.465 484.912 232.74 484.64C234.016 484.367 234.836 485.807 234.836 485.807C234.836 485.807 234.65 485.972 234.371 486.276C236.442 486.025 239.061 487.136 240.483 487.852C241.121 488.174 241.519 488.414 241.519 488.414H245.281L243.214 501.596L241.755 502.591L241.397 512.976C241.397 512.976 235.564 530.95 232.891 530.832C232.717 530.825 232.547 530.782 232.392 530.704C232.237 530.626 232.1 530.516 231.991 530.38C230.558 528.726 231.551 523.043 231.551 523.043V513.582C231.551 513.582 229.365 512.622 229.608 511.902C229.852 511.182 226.083 503.308 225.746 502.591C225.736 502.585 225.728 502.577 225.723 502.567C225.718 502.557 225.716 502.545 225.717 502.534C225.717 501.725 224.076 500.826 224.169 500.468C224.262 500.11 220.156 497.861 219.869 495.884C219.583 493.907 216.863 494.985 216.863 494.985L213.402 491.01C213.298 495.855 213.101 499.247 212.76 500.106C211.119 504.242 210.482 510.713 210.482 510.713C210.482 510.713 211.485 515.655 210.482 517.274C209.865 518.262 208.432 519.322 207.436 520.199C208.471 523.336 208.325 530.004 208.325 530.004V533.836L200.667 535.985C200.667 535.985 200.427 534.069 200.062 534.069C199.696 534.069 194.834 537.782 194.834 537.782C194.834 537.782 176.115 538.022 171.379 537.782C169.587 537.693 169.1 536.923 169.376 535.992C169.831 534.441 172.385 532.432 174.657 532.278C178.305 532.038 182.923 528.207 182.923 528.207C182.923 528.207 182.565 527.365 184.504 526.169C185.844 525.345 189.552 522.011 191.846 520.06C191.738 519.913 191.627 519.766 191.523 519.609C191.523 519.609 194.622 515.311 193.981 513.406C193.34 511.501 194.257 508.751 194.257 508.751C194.257 508.751 195.988 503.447 195.988 500.751C195.988 499.043 196.246 489.327 196.432 482.437L194.834 482.57L194.802 481.882L194.085 481.947L187.309 482.57L187.517 475.332C184.253 473.9 181.537 472.571 180.412 471.723C176.585 468.858 173.303 468.668 173.303 468.668C173.303 468.668 165.556 464.535 164.37 462.827C163.184 461.119 163.295 448.718 163.295 448.718L163.933 422.139V422.118C163.933 422.118 164.477 409.269 165.574 406.483C165.975 405.452 166.968 402.014 168.053 398.089C167.429 398.025 166.799 398.051 166.183 398.168C166.144 399.128 166.118 399.786 166.118 400.012C166.118 401.538 163.933 402.834 163.933 402.834L165.481 368.456V345.068C160.708 346.586 149.166 347.059 149.166 347.059C140.85 346.622 142.853 339.059 142.853 339.059ZM187.872 309.522H187.897C187.727 308.621 187.506 307.73 187.234 306.854L187.872 309.522ZM219.196 427.436C216.369 427.901 213.104 427.765 212.857 427.217C212.832 427.164 212.8 427.067 212.757 426.942C212.667 427.099 212.581 427.26 212.492 427.425L212.768 432.61V432.729L222.084 432.227C221.432 429.452 220.199 428.098 219.196 427.436ZM188.141 453.599L188.381 445.201C187.965 443.654 187.592 442.251 187.273 441.047C187.13 442.046 187.008 442.967 186.915 443.816C186.034 451.783 187.334 453.338 188.141 453.599ZM161.625 327.696C162.159 327.9 164.191 326.622 166.118 325.297C166.118 325.053 166.101 324.813 166.09 324.581C165.817 319.098 174.75 315.685 177.484 315.055C178.148 314.884 178.791 314.644 179.405 314.339C180.861 313.618 182.278 312.818 183.647 311.943L183.611 311.839C183.611 311.839 187.137 309.608 187.213 306.826C186.409 304.295 185.395 301.836 184.181 299.474C184.113 299.334 184.038 299.187 183.966 299.048C182.3 298.53 180.745 297.707 179.38 296.62C178.831 303.782 168.462 309.945 168.462 309.945L167.355 311.735L167.093 312.158C167.652 312.487 167.921 312.752 167.731 312.906C166.943 313.537 165.036 317.103 164.248 318.611C164.033 319.019 163.89 319.274 163.89 319.274C163.89 319.274 162.195 323.882 161.224 327.739C161.353 327.685 161.495 327.67 161.632 327.696H161.625Z" fill="url(#paint1_linear)"/>
<path d="M157.619 309.121L157.741 309.282L158.157 309.837L166.129 315.467L167.82 312.688L168.895 310.897C168.895 310.897 184.787 301.372 177.954 292.19C171.12 283.008 161.023 303.828 161.023 303.828L157.619 309.121Z" fill="#FFC5D3"/>
<path d="M173.654 286.69C173.687 286.623 173.769 286.596 173.836 286.63C173.904 286.664 173.931 286.746 173.897 286.813L173.01 288.572C172.977 288.639 172.895 288.666 172.828 288.632C172.76 288.598 172.733 288.517 172.767 288.449L173.654 286.69Z" fill="#3A3768"/>
<path d="M182.752 289.15L182.755 289.152C182.792 289.17 182.807 289.215 182.788 289.252L182.524 289.777C182.505 289.814 182.46 289.829 182.423 289.81L182.42 289.809C182.382 289.79 182.368 289.745 182.386 289.708L182.651 289.183C182.669 289.146 182.715 289.131 182.752 289.15Z" fill="#3A3768"/>
<path d="M182.028 290.392C182.049 290.35 182.101 290.332 182.143 290.354C182.186 290.375 182.203 290.427 182.182 290.469L181.68 291.464C181.659 291.506 181.607 291.523 181.565 291.502C181.522 291.481 181.505 291.429 181.527 291.387L182.028 290.392Z" fill="#3A3768"/>
<path d="M181.255 291.94C181.276 291.9 181.325 291.883 181.366 291.904C181.406 291.924 181.423 291.974 181.402 292.014L180.893 293.025C180.873 293.066 180.823 293.082 180.782 293.061C180.742 293.041 180.725 292.991 180.746 292.951L181.255 291.94Z" fill="#3A3768"/>
<path d="M176.434 283.236L183.129 286.606C183.525 286.805 183.684 287.288 183.485 287.683L175.888 302.76C175.688 303.156 175.206 303.315 174.81 303.116L168.115 299.746C167.719 299.547 167.56 299.065 167.759 298.669L175.356 283.592C175.556 283.196 176.038 283.037 176.434 283.236Z" fill="#3A3768"/>
<path d="M177.291 284.194C177.329 284.213 177.363 284.239 177.391 284.271C177.419 284.304 177.441 284.341 177.454 284.382C177.467 284.423 177.473 284.466 177.469 284.508C177.466 284.551 177.454 284.592 177.434 284.63L177.405 284.691C177.386 284.73 177.374 284.771 177.37 284.814C177.367 284.857 177.372 284.9 177.385 284.941C177.398 284.982 177.42 285.02 177.448 285.053C177.476 285.086 177.51 285.112 177.549 285.132L180.996 286.865C181.034 286.885 181.075 286.897 181.118 286.9C181.161 286.903 181.204 286.898 181.244 286.885C181.285 286.872 181.323 286.85 181.355 286.822C181.387 286.794 181.414 286.76 181.433 286.722L181.465 286.661C181.484 286.623 181.511 286.588 181.543 286.56C181.575 286.532 181.613 286.511 181.653 286.497C181.694 286.483 181.737 286.478 181.779 286.481C181.822 286.484 181.864 286.495 181.902 286.514L182.572 286.854C182.646 286.89 182.711 286.941 182.765 287.002C182.819 287.064 182.86 287.136 182.885 287.214C182.911 287.291 182.921 287.373 182.915 287.455C182.908 287.536 182.886 287.616 182.848 287.689L175.524 302.217C175.449 302.364 175.319 302.476 175.162 302.527C175.005 302.579 174.834 302.567 174.686 302.493L168.673 299.467C168.526 299.392 168.414 299.261 168.363 299.105C168.311 298.948 168.324 298.777 168.397 298.629L175.725 284.093C175.762 284.02 175.813 283.955 175.875 283.901C175.937 283.848 176.009 283.807 176.087 283.782C176.165 283.756 176.247 283.746 176.329 283.752C176.41 283.758 176.49 283.781 176.563 283.818L177.291 284.194Z" fill="#6C63FF"/>
<path d="M179.294 285.294L180.199 285.75C180.263 285.782 180.289 285.859 180.257 285.923C180.225 285.986 180.147 286.012 180.083 285.98L179.178 285.524C179.114 285.492 179.089 285.415 179.121 285.351C179.153 285.287 179.23 285.262 179.294 285.294Z" fill="#E6E8EC"/>
<path d="M178.824 285.336C178.743 285.336 178.677 285.27 178.677 285.189C178.677 285.108 178.743 285.042 178.824 285.042C178.905 285.042 178.971 285.108 178.971 285.189C178.971 285.27 178.905 285.336 178.824 285.336Z" fill="#E6E8EC"/>
<path d="M172.131 339.918L174.37 399.98C174.37 399.98 166.846 397.473 165.681 399.353C164.517 401.233 166.935 369.272 166.935 369.272L172.131 339.918Z" fill="#5F5570"/>
<path opacity="0.15" d="M172.131 339.918L174.37 399.98C174.37 399.98 166.846 397.473 165.681 399.353C164.517 401.233 166.935 369.272 166.935 369.272L172.131 339.918Z" fill="black"/>
<path d="M171.773 537.89C176.431 538.13 194.823 537.89 194.823 537.89C194.823 537.89 199.603 534.191 199.961 534.191C200.32 534.191 200.556 536.099 200.556 536.099L208.081 533.951V530.133C208.081 530.133 208.321 519.265 206.053 518.792C203.785 518.319 193.748 518.792 193.748 518.792C193.39 518.674 186.582 525.12 184.672 526.312C182.762 527.505 183.12 528.343 183.12 528.343C183.12 528.343 178.581 532.16 174.997 532.4C172.765 532.55 170.253 534.549 169.805 536.099C169.533 537.034 170.017 537.8 171.773 537.89Z" fill="#BC8487"/>
<path opacity="0.1" d="M171.773 537.89C176.431 538.13 194.823 537.89 194.823 537.89C194.823 537.89 199.603 534.191 199.961 534.191C200.32 534.191 200.556 536.099 200.556 536.099L208.081 533.951V530.208L201.036 532.758L195.422 536.099H169.805C169.533 537.034 170.017 537.8 171.773 537.89Z" fill="black"/>
<g opacity="0.1">
<path d="M192.688 532.282C192.688 532.282 186.954 526.792 183.12 528.343L192.688 532.282Z" fill="black"/>
<path d="M192.688 532.282C192.688 532.282 186.954 526.792 183.12 528.343" stroke="black" stroke-miterlimit="10"/>
</g>
<path d="M228.985 512.106C228.745 512.822 230.895 513.779 230.895 513.779V523.207C230.895 523.207 229.92 528.869 231.328 530.52C231.434 530.654 231.568 530.763 231.72 530.841C231.872 530.918 232.039 530.961 232.21 530.968C234.836 531.086 240.569 513.18 240.569 513.18L240.928 502.835L242.361 501.843L244.393 488.711H240.688C240.688 488.711 240.297 488.471 239.67 488.149C237.878 487.236 234.127 485.642 232.088 487.161L225.162 502.756C225.162 502.756 229.221 511.39 228.985 512.106Z" fill="#BC8487"/>
<path opacity="0.1" d="M231.328 530.52C231.434 530.654 231.568 530.763 231.72 530.841C231.872 530.918 232.039 530.961 232.21 530.968C234.836 531.086 240.569 513.18 240.569 513.18L240.928 502.835L242.361 501.843L244.393 488.711H240.688C240.688 488.711 240.297 488.471 239.67 488.149L238.778 501.603L238.301 513.18C238.301 513.18 233.801 525.786 231.328 530.52Z" fill="black"/>
<path d="M164.875 463.196C166.04 464.897 173.654 469.015 173.654 469.015C173.654 469.015 176.879 469.194 180.641 472.059C182.587 473.542 189.348 476.482 195.421 478.978C201.094 481.309 206.171 483.25 206.171 483.25L212.019 490.054L216.473 495.236C216.473 495.236 219.16 494.162 219.429 496.131C219.697 498.101 223.728 500.339 223.639 500.697C223.549 501.055 225.162 501.95 225.162 502.756C225.162 503.562 231.164 496.937 231.074 492.908C230.984 488.879 234.12 486.104 234.12 486.104C234.12 486.104 233.313 484.672 232.059 484.94C230.805 485.209 229.73 484.672 229.372 484.224C229.014 483.776 227.491 484.851 226.774 484.493C226.058 484.135 223.191 477.062 223.191 477.062L212.022 469.574L189.807 454.691L188.782 454.004C188.782 454.004 185.826 455.357 187.026 444.267C187.259 442.118 187.65 439.507 188.244 436.327C191.917 416.721 178.749 414.483 178.749 414.483L167.193 418.333L164.416 422.63V422.651L163.789 449.13C163.789 449.13 163.71 461.495 164.875 463.196Z" fill="#433A59"/>
<path opacity="0.1" d="M195.511 475.73C195.511 475.73 195.475 477.001 195.422 478.978C201.094 481.309 206.171 483.25 206.171 483.25L212.019 490.054C212.115 484.414 212.094 477.087 212.019 469.578L189.803 454.695C192.551 464.876 195.511 475.73 195.511 475.73Z" fill="black"/>
<path opacity="0.1" d="M164.427 422.641V422.662L181.806 422.999C181.806 422.999 184.851 434.906 185.299 437.413C185.41 438.028 186.084 440.661 187.037 444.277C187.27 442.129 187.66 439.518 188.255 436.338C191.928 416.732 178.76 414.494 178.76 414.494L167.204 418.343L164.427 422.641Z" fill="black"/>
<path d="M210.202 390.143L212.442 433.115C212.442 433.115 214.054 496.231 212.442 500.35C210.829 504.468 210.202 510.914 210.202 510.914C210.202 510.914 211.187 515.838 210.202 517.449C209.217 519.061 206.081 520.851 206.171 521.746C206.261 522.642 196.586 527.476 191.57 519.777C191.57 519.777 194.615 515.48 193.988 513.599C193.361 511.719 194.257 508.944 194.257 508.944C194.257 508.944 195.959 503.662 195.959 500.966C195.959 498.269 196.586 475.719 196.586 475.719C196.586 475.719 186.822 439.909 186.374 437.402C185.926 434.895 182.88 422.988 182.88 422.988L164.427 422.63C164.427 422.63 164.965 409.828 166.04 407.052C167.115 404.277 172.4 383.955 172.4 383.955L210.202 390.143Z" fill="#433A59"/>
<path d="M240.999 432.27L242.601 432.729L242.666 434.311L194.644 434.931V434.308L240.999 432.27Z" fill="#7B728F"/>
<path d="M184.357 300.48C191.344 314.643 187.005 317.605 186.313 317.97C187.793 317.283 207.027 308.251 204.498 305.959C202.853 304.466 201.445 297.97 200.617 293.315C200.126 290.536 199.84 288.412 199.84 288.412L179.656 292.111C181.612 295.263 183.167 298.038 184.357 300.48Z" fill="#FFC5D3"/>
<path opacity="0.1" d="M157.727 309.282L158.142 309.837L166.129 315.467L167.82 312.688C165.359 311.256 157.977 308.749 157.977 308.749L157.727 309.282Z" fill="black"/>
<path d="M150.363 322.192C151.08 324.699 163.173 322.192 163.173 322.192L164.427 320.223C164.427 320.223 164.553 319.972 164.764 319.564C165.538 318.063 167.412 314.511 168.186 313.881C169.171 313.075 157.616 309.136 157.616 309.136L154.075 316.835C153.203 317.421 152.398 318.102 151.675 318.865C150.779 319.836 150.037 321.05 150.363 322.192Z" fill="#E5E8EF"/>
<path d="M170.429 323.345C170.429 323.345 163.263 328.996 162.188 328.588C161.113 328.18 143.734 339.908 143.734 339.908C143.734 339.908 141.764 347.428 149.915 347.875C149.915 347.875 167.204 347.159 167.921 344.653C168.637 342.146 170.429 323.345 170.429 323.345Z" fill="#5F5570"/>
<path opacity="0.1" d="M189.957 311.986L197.751 320.044L186.822 389.516L182.522 387.009C182.522 387.009 171.414 391.933 170.519 387.367C169.623 382.801 169.87 364.807 169.87 364.807L171.325 332.298C171.325 332.298 176.431 320.928 176.431 320.57C176.431 320.212 183.794 314.661 183.794 314.661L187.27 311.975L189.957 311.986Z" fill="black"/>
<path d="M189.957 310.912L197.751 318.969L186.822 388.442L182.522 385.935C182.522 385.935 171.414 390.859 170.519 386.293C169.623 381.727 169.87 363.732 169.87 363.732L171.325 331.224C171.325 331.224 176.431 319.854 176.431 319.496C176.431 319.137 183.794 313.587 183.794 313.587L187.27 310.901L189.957 310.912Z" fill="#E5E8EF"/>
<path opacity="0.1" d="M189.509 312.076L191.659 316.462L189.509 318.729C189.509 318.729 181.805 334.278 183.328 343.499L181.716 373.849L176.52 378.952L172.4 374.196L174.37 346.622C174.37 346.622 179.656 323.882 185.209 316.81L186.822 310.543L189.509 312.076Z" fill="black"/>
<path d="M189.509 311.359L191.659 315.746L189.509 318.013C189.509 318.013 181.805 333.562 183.328 342.783L181.716 373.133L176.52 378.236L172.4 373.48L174.37 345.906C174.37 345.906 179.656 323.166 185.209 316.094L186.822 309.827L189.509 311.359Z" fill="#BC8487"/>
<path opacity="0.1" d="M179.656 292.111C181.612 295.263 183.153 298.038 184.357 300.48C185.625 300.854 186.94 301.043 188.262 301.042C192.691 301.042 195.242 297.981 197.751 294.729C198.324 293.991 200.209 294.163 200.617 293.297C200.126 290.518 199.84 288.394 199.84 288.394L179.656 292.111Z" fill="black"/>
<path d="M174.528 286.955C174.528 290.224 175.696 293.385 177.821 295.871C179.946 298.356 182.888 300.002 186.119 300.512C189.35 301.022 192.657 300.363 195.445 298.653C198.233 296.944 200.319 294.296 201.327 291.186C202.336 288.077 202.201 284.709 200.947 281.69C199.692 278.671 197.401 276.198 194.485 274.717C191.569 273.236 188.22 272.844 185.04 273.611C181.861 274.378 179.059 276.253 177.14 278.901C175.442 281.243 174.528 284.062 174.528 286.955Z" fill="#FFC5D3"/>
<path opacity="0.1" d="M192.645 317.537L203.931 303.929C203.931 303.929 204.974 303.51 201.452 299.825C201.452 299.825 188.517 309.902 187.714 311.614C186.911 313.325 192.645 317.537 192.645 317.537Z" fill="black"/>
<path d="M193.003 316.821L204.29 303.213C204.29 303.213 205.333 302.794 201.81 299.109C201.81 299.109 188.875 309.186 188.072 310.897C187.27 312.609 193.003 316.821 193.003 316.821Z" fill="#E5E8EF"/>
<path d="M164.427 403.428C164.427 403.428 166.577 402.139 166.577 400.617C166.577 399.095 167.652 377.609 167.652 377.609C167.652 377.609 169.229 364.785 170.877 354.594C171.844 348.588 172.837 343.492 173.539 342.482L173.568 342.439C175.449 340.022 175.091 328.205 186.825 310.926C186.668 311.034 182.622 313.87 179.659 315.295C179.056 315.598 178.423 315.838 177.771 316.011C175.083 316.638 166.305 320.04 166.573 325.501C166.842 330.962 165.946 343.496 165.946 343.496V369.183L164.427 403.428Z" fill="#5F5570"/>
<path d="M164.427 320.223C164.427 320.223 160.665 330.608 161.202 333.204C161.74 335.8 152.513 346.006 152.513 346.006L143.734 339.918C143.734 339.918 147.049 333.293 146.601 331.324C146.153 329.354 148.93 325.146 148.93 325.146L148.751 318.171C148.751 318.171 150.363 321.197 164.427 320.223Z" fill="#5F5570"/>
<path opacity="0.1" d="M177.14 278.901L183.948 279.159C184.613 279.154 185.276 279.237 185.919 279.406C188.352 280.154 189.473 282.74 189.563 285.064C189.653 287.388 190.996 289.991 193.601 290.195C193.86 290.239 194.127 290.18 194.343 290.031C194.508 289.855 194.618 289.635 194.658 289.397C195.032 288.043 195.609 286.753 196.371 285.572C197.446 285.766 198.241 286.786 198.521 287.853C198.8 288.921 198.725 290.045 198.722 291.152C198.718 292.557 198.854 293.959 199.126 295.338C200.237 293.897 201.05 292.249 201.518 290.491C201.987 288.733 202.1 286.9 201.853 285.098C201.606 283.295 201.003 281.56 200.079 279.993C199.155 278.426 197.928 277.057 196.47 275.968C195.012 274.879 193.353 274.09 191.587 273.647C189.821 273.205 187.986 273.118 186.186 273.39C184.386 273.663 182.659 274.291 181.104 275.237C179.549 276.183 178.198 277.428 177.129 278.901H177.14Z" fill="black"/>
<path d="M186.274 279.048C185.63 278.879 184.968 278.796 184.303 278.8L176.037 278.493C174.826 278.446 173.475 278.339 172.661 277.44C172.369 277.096 172.154 276.695 172.031 276.262C171.818 275.569 171.755 274.84 171.847 274.122C171.939 273.403 172.184 272.713 172.565 272.097C173.521 270.575 175.198 269.69 176.796 268.874C178.284 268.08 179.811 267.363 181.372 266.725C187.171 264.524 193.591 264.617 199.324 266.983C199.89 267.2 200.427 267.488 200.922 267.839C201.613 268.431 202.201 269.132 202.663 269.916L205.383 274.013C205.758 274.513 206.047 275.072 206.239 275.667C206.752 277.612 205.164 279.556 205.329 281.558C205.422 282.553 205.949 283.467 206.046 284.462C206.175 285.748 205.587 286.969 205.01 288.14L200.23 297.777C199.458 295.529 199.067 293.169 199.073 290.793C199.073 289.687 199.166 288.562 198.872 287.495C198.578 286.428 197.797 285.408 196.722 285.214C195.959 286.394 195.38 287.684 195.006 289.039C194.966 289.277 194.857 289.497 194.691 289.673C194.475 289.823 194.208 289.882 193.949 289.837C191.33 289.633 190.007 287.055 189.911 284.706C189.814 282.356 188.707 279.796 186.274 279.048Z" fill="#8F7080"/>
<path d="M242.601 432.729L239.254 431.772L188.793 434.519L194.346 435.235L242.601 432.729Z" fill="#7B728F"/>
<path opacity="0.1" d="M242.601 432.729L239.254 431.772L188.793 434.519L194.346 435.235L242.601 432.729Z" fill="black"/>
<path d="M187.42 482.863L194.078 482.244L196.414 482.029V445.022L195.798 436.431L195.662 434.519H188.793L187.42 482.863Z" fill="#7B728F"/>
<path opacity="0.1" d="M189.241 481.549L194.551 480.962L196.414 480.758V445.67L195.923 437.527L195.816 435.712H190.337L189.241 481.549Z" fill="black"/>
<path d="M225.656 432.729C225.656 432.729 222.342 425.463 220.952 425.237C219.561 425.011 217.01 425.237 217.01 425.237L217.236 427.343C217.236 427.343 220.64 427.611 221.715 433.294L225.656 432.729Z" fill="#7B728F"/>
<path opacity="0.1" d="M225.656 432.729C225.656 432.729 222.342 425.463 220.952 425.237C219.561 425.011 217.01 425.237 217.01 425.237L217.236 427.343C217.236 427.343 220.64 427.611 221.715 433.294L225.656 432.729Z" fill="black"/>
<path d="M212.8 424.478C212.8 424.478 203.889 428.908 205.053 434.1L209.89 433.832C209.89 433.832 212.219 426.089 214.054 425.685C215.889 425.28 212.8 424.478 212.8 424.478Z" fill="#7B728F"/>
<path d="M179.656 354.332V354.593L179.835 384.413C179.835 384.413 184.403 409.48 185.657 410.465C186.912 411.45 214.412 408.764 214.412 408.764L226.864 324.878C226.953 310.554 216.831 311.001 216.831 311.001C215.487 308.853 209.038 307.152 209.038 307.152L205.454 303.66L205.34 303.499C205.102 303.144 204.795 302.841 204.437 302.607C203.699 302.181 203.229 302.743 202.961 303.298C202.84 303.559 202.746 303.832 202.681 304.111C188.166 314.751 179.656 354.332 179.656 354.332Z" fill="#5F5570"/>
<path opacity="0.1" d="M180.014 354.69V354.952C184.518 346.715 201.871 315.51 206.619 313.956L204.792 312.702C204.792 312.702 203.573 311.986 205.813 311.27C205.813 311.27 209.306 311.718 209.396 307.51L205.698 303.857L204.795 302.965L203.319 303.657C203.198 303.917 203.104 304.19 203.039 304.469C188.524 315.109 180.014 354.69 180.014 354.69Z" fill="black"/>
<path d="M179.656 354.332V354.594C184.16 346.357 201.513 315.152 206.261 313.598L204.433 312.344C204.433 312.344 203.215 311.628 205.454 310.912C205.454 310.912 208.948 311.359 209.038 307.152L205.34 303.499L204.437 302.607L202.961 303.298C202.84 303.559 202.746 303.832 202.681 304.111C188.166 314.751 179.656 354.332 179.656 354.332Z" fill="#433A59"/>
<path opacity="0.1" d="M173.177 342.826L173.206 342.783C175.087 340.366 174.729 328.549 186.464 311.27C186.306 311.377 182.261 314.214 179.297 315.639L180.125 318.368L178.333 319.324L173.177 342.826Z" fill="black"/>
<path d="M173.536 342.468L173.564 342.425C175.445 340.008 175.087 328.19 186.822 310.912C186.664 311.019 182.619 313.855 179.656 315.281L180.483 318.009L178.692 318.966L173.536 342.468Z" fill="#433A59"/>
<path opacity="0.1" d="M187.338 308.154L188.072 311.256C188.072 311.256 187.535 314.36 184.314 314.629L183.794 313.15C183.794 313.15 187.27 310.923 187.338 308.154Z" fill="black"/>
<path d="M187.338 307.796L188.072 310.897C188.072 310.897 187.535 314.002 184.314 314.271L183.794 312.792C183.794 312.792 187.27 310.564 187.338 307.796Z" fill="#E5E8EF"/>
<path opacity="0.1" d="M191.971 435.02L194.078 482.244L196.414 482.029V445.022L195.798 436.431L191.971 435.02Z" fill="black"/>
<path d="M242.121 453.259L243.554 478.802L194.823 482.863L192.688 435.02L242.121 453.259Z" fill="#7B728F"/>
<path opacity="0.1" d="M243.196 456.005L242.243 433.445L192.329 435.737L194.705 459.586L243.196 456.005Z" fill="black"/>
<path d="M243.554 455.289L242.601 432.729L192.688 435.02L195.063 458.87L243.554 455.289Z" fill="#7B728F"/>
<path d="M216.562 455.318H222.564V462.301H216.562V455.318Z" fill="#C3BBC8"/>
<path d="M221.668 409.57L222.564 411.987C222.564 411.987 224.445 425.237 222.116 426.848C219.787 428.46 212.889 428.549 212.531 427.744C212.173 426.938 209.665 417.806 209.665 417.806C209.665 417.806 207.425 424.521 206.261 423.984C205.096 423.446 208.948 410.684 208.948 410.684L221.668 409.57Z" fill="#FFC5D3"/>
<path opacity="0.1" d="M222.564 399.543V412.345C222.564 412.345 213.069 414.136 208.948 411.042C208.948 411.042 212.8 398.648 211.367 395.514C209.933 392.381 222.564 399.543 222.564 399.543Z" fill="black"/>
<path d="M222.564 399.185V411.987C222.564 411.987 213.069 413.778 208.948 410.684C208.948 410.684 212.8 398.29 211.367 395.156C209.933 392.023 222.564 399.185 222.564 399.185Z" fill="#E5E8EF"/>
<path opacity="0.1" d="M223.639 324.251L226.147 325.594C226.147 325.594 226.595 330.966 226.864 331.682C227.133 332.398 226.864 339.65 226.864 339.65L226.986 354.332C226.986 354.332 227.373 362.121 226.986 364.896C226.599 367.672 226.165 378.236 226.165 378.236C226.165 378.236 223.743 388.531 224.639 392.202C225.534 395.872 224.549 404.109 223.026 403.393C221.503 402.676 207.439 399.901 206.723 399.364C206.006 398.827 206.364 393.813 206.723 393.187C207.081 392.56 209.231 384.055 209.052 382.085C208.873 380.116 209.679 362.837 209.679 362.837C209.679 362.837 208.335 344.395 207.798 340.097C207.26 335.8 208.873 323.177 210.306 322.998C211.739 322.819 215.935 313.06 223.639 324.251Z" fill="black"/>
<path d="M224.356 323.535L226.864 324.878C226.864 324.878 227.312 330.249 227.58 330.966C227.849 331.682 227.58 338.934 227.58 338.934L227.702 353.616C227.702 353.616 228.089 361.405 227.702 364.18C227.315 366.955 226.882 377.519 226.882 377.519C226.882 377.519 224.46 387.815 225.355 391.486C226.251 395.156 225.266 403.393 223.743 402.676C222.22 401.96 208.156 399.185 207.439 398.648C206.723 398.11 207.081 393.097 207.439 392.47C207.798 391.844 209.948 383.339 209.769 381.369C209.589 379.399 210.396 362.121 210.396 362.121C210.396 362.121 209.052 343.678 208.514 339.381C207.977 335.084 209.589 322.461 211.023 322.282C212.456 322.103 216.652 312.344 224.356 323.535Z" fill="#5F5570"/>
<g opacity="0.1">
<path opacity="0.1" d="M197.263 283.871C198.338 284.065 199.134 285.085 199.413 286.152C199.693 287.22 199.617 288.344 199.614 289.451C199.607 291.826 199.997 294.186 200.768 296.434L205.551 286.797C205.644 286.607 205.741 286.41 205.834 286.213C205.613 286.876 205.338 287.521 205.014 288.14L200.23 297.776C199.459 295.529 199.069 293.169 199.076 290.793C199.076 289.687 199.166 288.562 198.876 287.495C198.585 286.428 197.801 285.408 196.726 285.214C196.379 285.757 196.069 286.323 195.798 286.908C196.162 285.84 196.654 284.821 197.263 283.871Z" fill="black"/>
<path opacity="0.1" d="M172.479 272.251C172.268 273.132 172.298 274.053 172.565 274.919C172.689 275.352 172.906 275.754 173.199 276.097C174.012 276.996 175.349 277.103 176.574 277.15L184.837 277.458C185.503 277.453 186.167 277.536 186.811 277.705C189.241 278.453 190.366 281.039 190.455 283.363C190.545 285.687 191.889 288.29 194.494 288.494C194.753 288.538 195.019 288.479 195.235 288.33C195.153 288.562 195.074 288.799 195.006 289.046C194.969 289.284 194.86 289.505 194.694 289.68C194.478 289.829 194.212 289.888 193.952 289.844C191.33 289.64 190.011 287.062 189.914 284.713C189.817 282.364 188.7 279.803 186.27 279.055C185.626 278.886 184.962 278.803 184.296 278.808L176.033 278.5C174.822 278.453 173.471 278.346 172.658 277.447C172.365 277.104 172.148 276.702 172.024 276.269C171.82 275.603 171.756 274.904 171.834 274.213C171.913 273.521 172.132 272.854 172.479 272.251Z" fill="black"/>
</g>
<path opacity="0.1" d="M185.933 419.128C185.933 419.128 182.83 417.516 181.634 417.606C180.437 417.695 169.691 431.353 169.691 431.353L185.933 419.128Z" fill="black"/>
<path opacity="0.1" d="M217.763 326.694C217.763 326.694 223.435 329.114 223.284 330.787C223.134 332.459 217.763 326.694 217.763 326.694Z" fill="black"/>
<path opacity="0.1" d="M220.525 334.608C220.525 334.608 226.477 342.214 225.162 342.468C223.847 342.722 220.525 334.608 220.525 334.608Z" fill="black"/>
<path opacity="0.1" d="M200.617 346.006C200.617 346.006 200.072 363.016 204.437 365.165L200.617 346.006Z" fill="black"/>
<path opacity="0.1" d="M223.299 391.425C223.299 391.425 219.099 389.04 218.135 389.516C217.171 389.992 223.299 391.425 223.299 391.425Z" fill="black"/>
<path opacity="0.1" d="M222.564 394.723C222.564 394.723 219.912 394.913 218.655 394.365C217.397 393.817 222.564 394.723 222.564 394.723Z" fill="black"/>
<path opacity="0.1" d="M159.267 332.087C159.267 332.087 155.978 341.53 154.083 341.53L159.267 332.087Z" fill="black"/>
<path opacity="0.1" d="M206.042 512.944C206.042 512.944 199.872 511.272 198.962 512.944C198.052 514.616 206.042 512.944 206.042 512.944Z" fill="black"/>
<path opacity="0.1" d="M225.656 488.149C225.656 488.149 227.193 490.502 225.162 491.218C223.13 491.934 225.656 488.149 225.656 488.149Z" fill="black"/>
<path opacity="0.1" d="M184.672 455.318C184.672 455.318 180.014 459.465 177.814 459.586C175.614 459.708 184.672 455.318 184.672 455.318Z" fill="black"/>
<path opacity="0.1" d="M7.64949 524.497C2.32023 524.497 -2 523.767 -2 522.867C-2 521.967 2.32023 521.238 7.64949 521.238C12.9787 521.238 17.299 521.967 17.299 522.867C17.299 523.767 12.9787 524.497 7.64949 524.497Z" fill="#6C63FF"/>
<path opacity="0.1" d="M301.351 500.242C296.021 500.242 291.701 499.513 291.701 498.613C291.701 497.713 296.021 496.983 301.351 496.983C306.68 496.983 311 497.713 311 498.613C311 499.513 306.68 500.242 301.351 500.242Z" fill="#6C63FF"/>
<path opacity="0.1" d="M14.3643 492.937C9.03511 492.937 4.7149 492.207 4.7149 491.307C4.7149 490.408 9.03511 489.678 14.3643 489.678C19.6936 489.678 24.0138 490.408 24.0138 491.307C24.0138 492.207 19.6936 492.937 14.3643 492.937Z" fill="#6C63FF"/>
<path opacity="0.1" d="M264.028 508.983C258.699 508.983 254.379 508.254 254.379 507.354C254.379 506.454 258.699 505.725 264.028 505.725C269.358 505.725 273.678 506.454 273.678 507.354C273.678 508.254 269.358 508.983 264.028 508.983Z" fill="#6C63FF"/>
<path opacity="0.1" d="M57.3766 510.384C52.0473 510.384 47.7271 509.654 47.7271 508.754C47.7271 507.854 52.0473 507.125 57.3766 507.125C62.7058 507.125 67.026 507.854 67.026 508.754C67.026 509.654 62.7058 510.384 57.3766 510.384Z" fill="#6C63FF"/>
<path d="M277.587 470.591C277.587 471.497 277.483 472.231 277.358 472.231C277.232 472.231 277.132 471.515 277.132 470.591C277.132 469.667 277.257 470.111 277.383 470.111C277.508 470.111 277.587 469.685 277.587 470.591Z" fill="#FFD037"/>
<path d="M278.838 471.672C278.042 472.106 277.351 472.367 277.29 472.26C277.229 472.152 277.827 471.708 278.623 471.275C279.418 470.842 279.103 471.157 279.164 471.275C279.225 471.393 279.637 471.243 278.838 471.672Z" fill="#FFD037"/>
</g>
<mask id="mask0" mask-type="alpha" maskUnits="userSpaceOnUse" x="-44" y="136" width="251" height="167">
<ellipse cx="81.3737" cy="219.324" rx="125.374" ry="83.3245" fill="#C4C4C4"/>
</mask>
<g mask="url(#mask0)">
<path d="M26.2826 180.357C26.2087 179.832 26.0593 179.317 25.8381 178.826C25.8099 178.733 25.7605 178.646 25.6931 178.572C25.6256 178.497 25.5417 178.436 25.4465 178.392C25.3193 178.362 25.1859 178.361 25.0579 178.388L23.063 178.663C22.8961 178.669 22.7362 178.725 22.6079 178.822C22.3481 179.068 22.6039 179.464 22.5959 179.803C22.587 180.184 22.2104 180.494 21.8019 180.597C21.385 180.672 20.955 180.668 20.5403 180.582L17.7508 180.192C18.5723 179.956 19.3036 179.517 19.8611 178.925C20.2281 178.534 20.4234 177.803 19.8929 177.618C19.7353 177.579 19.5709 177.567 19.4084 177.583C18.1446 177.591 17.1501 176.642 15.9669 176.242C15.2097 176.002 14.3877 175.984 13.6186 176.191C12.8494 176.397 12.1724 176.817 11.6845 177.391L13.1704 177.455C13.3102 177.448 13.4488 177.482 13.5662 177.55C13.8919 177.791 13.487 178.254 13.5329 178.631C13.5925 179.121 14.3153 179.225 14.8601 179.275C15.4049 179.324 16.0961 179.723 15.834 180.155C13.0957 181.004 10.3091 178.496 7.43324 178.805C6.70537 178.883 6.01807 179.14 5.30744 179.302C0.966393 180.29 -3.52148 177.653 -7.95611 178.212C-8.94197 178.363 -9.91091 178.593 -10.8514 178.899C-11.455 179.077 -12.0846 179.27 -12.5231 179.684C-12.9616 180.097 -13.1285 180.805 -12.7131 181.237C-13.8582 181.322 -15.0109 181.223 -16.1177 180.946C-15.8184 181.096 -15.5694 181.315 -15.3969 181.581C-15.2243 181.848 -15.1346 182.151 -15.1371 182.459C-16.925 182.721 -18.6656 183.199 -20.312 183.879C-20.0047 184.339 -19.6458 184.769 -19.2409 185.163L-21.5044 186.472C-20.7397 186.645 -20.3443 187.584 -20.789 188.17C-19.9961 187.852 -19.5047 187.031 -18.6568 186.865C-18.1013 186.755 -17.5361 186.96 -17.0092 187.152C-16.4822 187.344 -15.903 187.531 -15.3575 187.386C-14.812 187.242 -14.4096 186.606 -14.7563 186.2C-12.4246 185.588 -10.0149 185.249 -7.5868 185.192C-7.39948 185.171 -7.20951 185.203 -7.04383 185.285C-6.72775 185.482 -6.81091 185.908 -6.82794 186.254C-6.84496 186.6 -6.54543 187.055 -6.20195 186.899C-6.60606 187.214 -6.2606 187.808 -5.8729 188.139C-5.4852 188.471 -5.0179 188.929 -5.25526 189.36C-5.31721 189.473 -5.42228 189.563 -5.48189 189.676C-5.65783 190.012 -5.37848 190.403 -5.04899 190.625C-4.71949 190.848 -4.31589 191.004 -4.08701 191.312C-3.85813 191.62 -3.96207 192.16 -4.37135 192.203L-5.53466 190.874C-5.93212 191.245 -6.2046 191.71 -6.3205 192.214C-5.0869 193.122 -4.90135 194.969 -5.93411 196.061C-6.46188 196.619 -7.2124 196.958 -7.86744 197.394C-8.52249 197.829 -9.12861 198.449 -9.12697 199.181C-9.12412 200.447 -9.23906 201.624 -8.71193 202.797C-7.7399 204.962 -6.61766 207.069 -5.35184 209.107C-5.01944 209.642 -4.58983 210.228 -3.91644 210.32C-4.76748 208.456 -5.53358 206.562 -6.21474 204.639C-5.77108 204.641 -5.25838 204.673 -4.9983 204.996C-4.78294 205.264 -4.8292 205.628 -4.76228 205.953C-4.67716 206.268 -4.53523 206.569 -4.34214 206.842L-0.278202 213.357C0.058691 213.897 0.445127 214.477 1.089 214.696C1.50066 214.836 1.97693 214.809 2.35583 215.011C2.65282 215.169 2.85285 215.449 3.15562 215.597C4.01171 216.018 5.20219 215.212 6.00223 215.713C6.23098 215.857 6.37651 216.085 6.58729 216.249C7.32619 216.825 8.5383 216.44 9.39129 216.869C9.94102 217.146 10.2259 217.7 10.5191 218.202C11.2536 219.459 12.442 220.69 14.0161 220.79C14.5105 220.822 15.0156 220.737 15.4989 220.836C15.9822 220.935 16.458 221.315 16.3804 221.755C16.2474 222.511 16.6621 223.338 16.5507 224.096C16.3479 225.477 14.1712 226.084 13.9842 227.467C13.9433 227.77 14.0074 228.082 13.9273 228.379C13.8291 228.742 13.526 229.038 13.4183 229.399C13.2142 230.083 13.7588 230.764 14.3572 231.224C14.9556 231.685 15.6693 232.082 15.9964 232.726C16.3422 233.407 16.1723 234.201 16.2848 234.943C16.5303 236.563 18.0847 237.764 19.6845 238.538C20.1719 238.774 20.6953 239.002 21.0107 239.411C21.4225 239.945 21.3815 240.65 21.519 241.288C21.8557 242.851 23.3177 244.139 23.3592 245.73C23.3887 246.862 22.69 247.888 22.2726 248.955C21.8812 249.978 21.7396 251.065 21.8574 252.141C21.9752 253.218 22.3495 254.259 22.955 255.193C23.2672 255.668 23.6407 256.115 23.8615 256.629C24.2557 257.547 24.1278 258.591 24.4912 259.519C24.9717 260.746 26.292 261.76 26.1656 263.056C26.765 264.176 28.0886 264.727 29.4196 265.06L31.8049 265.658C32.2616 265.772 32.7389 265.887 33.204 265.804C33.669 265.722 34.1129 265.374 34.1009 264.948C32.9311 264.71 31.7239 264.458 30.7596 263.816C29.7954 263.175 29.1348 262.032 29.5007 261.004C29.6703 260.528 30.0313 259.978 29.6881 259.584C29.4917 259.358 29.1324 259.299 28.9108 259.094C28.5652 258.773 28.6839 258.234 28.9324 257.847C29.1809 257.46 29.5401 257.114 29.6403 256.677C29.6909 256.432 29.6571 256.179 29.5434 255.952C29.4297 255.725 29.2416 255.534 29.0043 255.406C29.4466 255.256 29.8488 255.024 30.185 254.724C30.4954 254.405 30.6389 253.913 30.3946 253.551C31.1199 253.633 31.9762 253.674 32.4523 253.174C32.8325 252.776 32.8064 252.18 32.6562 251.672C32.506 251.164 32.252 250.671 32.2441 250.146C33.9173 250.217 35.5941 250.166 37.258 249.993C37.0174 249.263 36.4706 248.647 35.7336 248.274C36.4872 248.16 37.1738 247.348 37.4119 246.694C37.6499 246.04 37.5892 245.328 37.4421 244.653C37.3855 244.48 37.3778 244.296 37.4195 244.119C37.5044 243.875 37.7701 243.727 38.0158 243.6L41.7564 241.666C41.9796 241.566 42.182 241.431 42.3546 241.269C42.7465 240.855 42.6884 240.229 42.4877 239.716C42.2871 239.203 41.9657 238.72 41.8884 238.18C41.6572 236.567 43.5768 235.409 44.2246 233.889C44.4789 233.293 44.5307 232.645 44.5799 232.008C44.6327 231.324 44.6367 230.529 44.0529 230.088C43.4933 229.665 42.619 229.76 42.0335 229.367C41.4967 229.006 41.3115 228.306 40.725 228.015C40.1924 227.751 39.5247 227.919 38.9323 227.794C37.8894 227.575 37.2331 226.494 36.1679 226.393C35.567 226.337 34.8868 226.601 34.3943 226.286C33.9603 226.009 33.9429 225.451 33.8602 224.978C33.7155 224.242 33.3237 223.564 32.7376 223.035C32.1515 222.505 31.3993 222.151 30.5824 222.018C29.9627 221.928 29.2883 221.962 28.7612 221.656C28.2274 221.346 27.9827 220.765 27.5634 220.335C26.8876 219.642 25.8234 219.396 24.8264 219.185L20.7712 218.327C20.0513 218.175 19.1234 218.094 18.7371 218.662C18.6227 218.878 18.5418 219.107 18.4965 219.343C18.3517 219.769 18.0604 220.144 17.6644 220.412C17.2684 220.68 16.7881 220.829 16.2925 220.836C15.9527 220.314 15.402 219.931 14.7556 219.766C14.3444 219.662 13.9042 219.651 13.512 219.499C13.2985 219.405 13.1084 219.273 12.9535 219.111C12.7986 218.949 12.6821 218.76 12.6111 218.556C12.5402 218.352 12.5163 218.137 12.5408 217.924C12.5654 217.711 12.638 217.505 12.7541 217.318C12.9879 216.944 13.0782 216.51 13.0111 216.085C12.9439 215.659 12.723 215.266 12.3825 214.965C11.6929 214.407 10.6953 214.273 9.77062 214.328C9.52843 213.853 9.93338 213.316 10.3698 212.971C10.8061 212.625 11.336 212.285 11.431 211.769C11.5805 210.957 10.4295 210.341 9.55558 210.583C8.68165 210.825 8.12386 211.589 7.75513 212.342C7.54358 212.774 7.36372 213.229 7.03001 213.593C6.6963 213.957 6.1589 214.218 5.6506 214.101C4.93098 213.936 4.65306 213.166 4.4938 212.514C4.28011 211.638 4.06519 210.749 4.10996 209.853C4.15473 208.957 4.49034 208.037 5.22442 207.431C6.42065 206.443 8.25574 206.539 9.87014 206.697C9.48873 206.31 9.58299 205.659 9.99109 205.294C10.2065 205.122 10.4654 205 10.7452 204.938C11.0251 204.876 11.3175 204.877 11.5971 204.939C12.0836 205.031 12.5218 205.266 12.8413 205.609C13.3 206.112 13.4305 206.792 13.7773 207.363C14.124 207.935 14.9037 208.422 15.5419 208.116C16.0932 207.851 16.1807 207.163 16.0435 206.614C15.9063 206.066 15.6149 205.532 15.6646 204.972C15.7594 203.902 16.9914 203.258 18.0786 202.818C19.1657 202.377 20.4106 201.785 20.5828 200.723C20.5887 200.515 20.6323 200.309 20.7118 200.114C20.8324 199.942 21 199.8 21.1986 199.702C24.3715 197.815 27.5972 195.905 31.2237 194.874C31.4123 194.82 31.4345 194.879 31.6268 194.837C31.8959 194.697 31.7175 194.31 31.4595 194.154C31.2015 193.998 30.8567 193.879 30.7912 193.605C30.7431 193.404 30.8747 193.207 30.9089 193.003C30.9929 192.504 30.3288 192.043 29.8131 192.242C29.5218 191.895 30.0982 191.492 30.5643 191.376C31.9638 191.03 33.4005 190.818 34.8499 190.746C35.0171 190.722 35.1885 190.748 35.3375 190.821C35.581 190.973 35.5499 191.321 35.3773 191.537C35.2048 191.754 34.9365 191.89 34.7215 192.073C34.4866 192.279 34.319 192.539 34.2371 192.825C34.1553 193.111 34.1622 193.411 34.2571 193.694C35.0137 194.04 35.8363 194.397 36.6743 194.275C37.5124 194.153 38.2562 193.305 37.8623 192.628C37.4955 191.998 36.3936 191.856 36.2042 191.165C35.9823 190.357 37.2544 189.637 36.9678 188.845C36.8423 188.498 36.4581 188.294 36.1633 188.044C35.8151 187.736 35.5783 187.342 35.4839 186.911C35.3895 186.481 35.442 186.035 35.6344 185.632C35.1542 185.708 34.6607 185.679 34.1954 185.548C33.7301 185.417 33.3065 185.187 32.9601 184.878C32.3204 184.297 31.8101 183.381 30.9018 183.407C30.0683 183.431 29.3503 184.306 28.5709 184.039C28.3792 183.973 28.177 183.84 27.9912 183.918C27.9303 183.953 27.8792 184.001 27.8417 184.057C27.8043 184.113 27.7814 184.176 27.775 184.241C27.5769 185.093 27.9176 186.064 27.4015 186.801C26.8399 187.602 25.5408 187.713 24.8599 188.436C24.4903 188.828 24.3471 189.357 24.0074 189.77C23.6677 190.184 22.9466 190.447 22.5389 190.086C22.7393 189.716 22.794 189.295 22.6941 188.892C22.5942 188.49 22.3457 188.13 21.989 187.871C21.6105 187.649 21.2025 187.471 20.7745 187.34C20.2963 187.158 19.8414 186.929 19.4177 186.659C19.2055 186.544 19.033 186.378 18.9196 186.18C18.8299 185.931 18.842 185.662 18.9537 185.421C19.1604 184.888 19.5251 184.415 20.0085 184.055C20.4918 183.694 21.0753 183.459 21.6961 183.375C22.2389 183.309 22.8707 183.332 23.23 182.96C23.4201 182.763 23.5198 182.465 23.7957 182.385C23.9722 182.353 24.1554 182.374 24.318 182.443L26.3441 183.085C26.5702 183.177 26.819 183.214 27.0659 183.192C27.1884 183.178 27.3 183.122 27.3785 183.036C27.457 182.95 27.4965 182.841 27.4891 182.73C27.4243 182.427 26.9066 182.281 26.9537 181.976C26.9801 181.877 27.0392 181.788 27.1233 181.719C27.8545 181.019 28.7487 180.473 29.742 180.12C30.7352 179.767 31.8029 179.616 32.8686 179.678C33.1243 180.056 32.7198 180.503 32.3833 180.826C32.0468 181.149 31.7763 181.725 32.1833 181.974C32.3501 182.05 32.5356 182.088 32.7228 182.083C33.2216 182.144 33.7064 182.276 34.1587 182.475C34.8589 182.749 35.5456 183.049 36.2189 183.375C36.1594 182.975 36.1026 182.555 36.2709 182.181C36.4392 181.807 36.9174 181.514 37.3351 181.66C37.7376 181.8 37.9441 182.28 38.3729 182.324C38.945 182.382 39.1707 181.622 38.9318 181.15C38.6928 180.679 38.2197 180.284 38.1802 179.767C38.1536 179.418 38.3011 178.986 37.9915 178.775C37.8814 178.711 37.7563 178.672 37.6263 178.659L29.8969 177.379C29.438 177.303 28.7748 177.361 28.7544 177.781C28.7431 178.015 28.9756 178.247 28.8726 178.462C28.7627 178.692 28.4017 178.671 28.1387 178.752C27.7307 178.879 27.526 179.315 27.5652 179.701C27.6369 180.085 27.8023 180.451 28.0493 180.771C27.5466 180.581 26.7853 180.547 26.2826 180.357Z" fill="#3F3D56"/>
<path d="M20.1153 174.452C19.6279 174.307 19.1026 174.3 18.6108 174.433C18.119 174.565 17.6844 174.831 17.3659 175.193C17.2386 175.344 17.1317 175.552 17.2383 175.715C17.391 175.949 17.7802 175.857 18.0672 175.773C18.489 175.638 18.948 175.628 19.3765 175.745C19.646 175.828 19.887 175.975 20.1577 176.056C20.2894 176.105 20.4337 176.122 20.575 176.103C20.7163 176.084 20.8493 176.032 20.9597 175.95C21.1455 175.78 21.1571 175.515 21.1575 175.276C21.1703 175.196 21.1632 175.114 21.1367 175.037C21.1101 174.96 21.0648 174.889 21.0039 174.83C20.8956 174.774 20.7739 174.741 20.6488 174.736C20.3688 174.689 20.1157 174.556 19.933 174.359" fill="#3F3D56"/>
<path d="M22.9023 173.754C22.7932 173.748 22.6845 173.768 22.5865 173.812C22.4884 173.855 22.4045 173.921 22.3427 174.002C22.2809 174.083 22.2433 174.177 22.2335 174.275C22.2237 174.373 22.2421 174.471 22.2869 174.561C22.6219 174.643 22.9719 174.664 23.3159 174.621C23.4875 174.597 23.6473 174.528 23.7753 174.423C23.9033 174.317 23.9937 174.18 24.0351 174.028C23.6301 174.094 23.2121 174.022 22.8627 173.826" fill="#3F3D56"/>
<path d="M32.2532 172.587C31.3414 172.762 30.4558 173.033 29.6146 173.394C30.0112 173.531 30.3483 173.779 30.5762 174.102C30.8042 174.425 30.9109 174.805 30.8808 175.186C30.8452 175.333 30.8493 175.485 30.8928 175.629C30.9897 175.841 31.2705 175.92 31.5174 175.974C31.9609 176.096 32.4241 176.149 32.8873 176.132C33.119 176.121 33.344 176.058 33.542 175.949C33.74 175.84 33.9047 175.689 34.0212 175.508C34.0884 175.337 34.1671 175.169 34.257 175.006C34.8488 174.195 36.6067 175.176 37.242 174.392C37.4658 174.116 37.4454 173.7 37.7371 173.481C37.888 173.386 38.0629 173.326 38.2461 173.307C39.5237 173.078 40.8143 172.913 42.112 172.811C42.7269 172.763 43.5284 172.564 43.5335 172.009C41.2175 171.599 38.816 171.89 36.7025 172.836C35.941 173.179 34.9339 173.901 34.2004 173.446C33.9258 173.276 33.9394 172.817 33.5614 172.625C33.175 172.429 32.6634 172.509 32.2532 172.587Z" fill="#3F3D56"/>
<path d="M39.8273 173.862L40.9145 174.05C40.7144 174.042 40.5147 174.073 40.3287 174.14C40.1427 174.207 39.9748 174.309 39.836 174.439C39.6973 174.569 39.5909 174.724 39.5241 174.894C39.4572 175.064 39.4315 175.245 39.4484 175.424C40.4665 175.73 41.5765 175.432 42.649 175.473C43.7214 175.514 44.9692 176.203 44.7862 177.155C44.7308 177.443 44.5461 177.731 44.6421 178.01C44.7095 178.205 44.9011 178.344 45.0093 178.524C45.2347 178.899 45.0545 179.374 44.7699 179.715C44.4853 180.057 44.1027 180.329 43.8529 180.691C43.2316 181.593 43.5846 182.759 43.9547 183.766C44.0617 184.147 44.2594 184.502 44.5339 184.807C45.0823 185.332 45.9759 185.378 46.7762 185.388C47.3587 185.396 48.026 185.37 48.3944 184.964C48.8753 184.434 48.539 183.606 48.8557 182.984C49.1432 182.419 49.8759 182.176 50.5397 182.004C51.7557 181.689 52.995 181.421 54.1447 180.945C55.5723 180.354 56.9065 179.433 58.4755 179.357C58.9157 179.336 59.3669 179.383 59.7909 179.274C60.2149 179.166 60.6177 178.836 60.5856 178.44C60.5582 178.102 60.2403 177.854 59.992 177.599C59.7436 177.344 59.5486 176.952 59.7769 176.682L63.8897 175.991C63.5981 175.276 63.371 174.334 64.0409 173.869C64.2826 173.701 64.6063 173.634 64.812 173.431C65.1628 173.085 64.9864 172.488 64.5815 172.194C64.1766 171.9 63.6292 171.832 63.1105 171.793C61.3072 171.658 59.4934 171.747 57.6866 171.836C54.1546 172.01 50.6225 172.185 47.0905 172.359C46.3795 172.394 45.5586 172.34 44.9064 172.559C44.3544 172.744 43.9618 173.083 43.3304 173.202C42.1648 173.422 40.8821 173.273 39.8273 173.862Z" fill="#3F3D56"/>
<path d="M59.3041 181.596C59.1933 181.58 59.08 181.604 58.9876 181.661C58.9265 181.721 58.8902 181.799 58.8846 181.88C58.8144 182.241 58.898 182.611 59.1187 182.919C59.2311 183.069 59.3862 183.19 59.568 183.268C59.7498 183.347 59.9517 183.38 60.1526 183.365C60.6421 183.308 61.0029 182.933 61.4529 182.749C62.1465 182.467 65.0923 182.026 63.0546 181.036C62.3523 180.694 61.8986 180.996 61.3451 181.221C60.7154 181.51 60.0097 181.64 59.3041 181.596Z" fill="#3F3D56"/>
<path d="M77.152 173.303C76.914 173.39 76.715 173.546 76.5859 173.746C76.5264 173.848 76.5126 173.966 76.5473 174.077C76.582 174.187 76.6626 174.281 76.7724 174.34C76.8612 174.369 76.9554 174.382 77.0499 174.38L78.0174 174.406C78.4284 174.417 78.9418 174.495 79.0523 174.852C79.1343 175.117 78.9507 175.457 79.1722 175.646C79.2672 175.712 79.3815 175.752 79.5013 175.761C79.82 175.835 80.1528 175.845 80.4761 175.79C81.1801 175.62 80.8102 175.233 81.0319 174.889C81.3711 174.362 81.3124 174.681 81.9102 174.379C82.3516 174.156 82.922 173.751 82.5536 173.183C81.9128 172.195 78.0974 172.878 77.152 173.303Z" fill="#3F3D56"/>
<path d="M96.2479 172.806L95.6861 172.873C94.4192 173.026 93.1452 173.179 91.925 173.522C92.4532 173.71 93.0073 173.832 93.5722 173.885C93.8831 173.899 94.192 173.939 94.4948 174.003C95.0337 174.148 95.5768 174.521 96.0975 174.33C96.4203 174.211 96.5256 173.909 96.793 173.748C96.9777 173.638 97.678 173.458 97.7563 173.347C98.3893 172.443 96.7344 172.748 96.2479 172.806Z" fill="#3F3D56"/>
<path d="M98.7147 175.104C97.9643 175.482 97.268 175.94 96.6415 176.47C96.3775 176.694 96.1079 176.971 96.1319 177.297C96.1637 177.729 96.6755 177.98 97.1189 178.149L98.9148 178.833C99.1327 178.557 98.9333 178.175 98.7081 177.904C98.4829 177.632 98.2153 177.318 98.3148 176.991C98.4284 176.618 98.9336 176.491 99.3573 176.427C100.048 176.322 101.91 176.331 101.686 175.329C101.423 174.149 99.4077 174.755 98.7147 175.104Z" fill="#3F3D56"/>
<path d="M98.3536 241.871C98.1826 242.317 98.1664 242.842 98.4621 243.231C98.794 243.667 99.4581 243.83 100.033 243.719C100.605 243.582 101.115 243.287 101.491 242.875C101.835 242.53 102.118 242.14 102.33 241.718C102.626 241.06 102.834 240.372 102.951 239.67L103.509 237.036C103.634 236.447 103.629 234.641 102.426 235.229C102.098 235.39 101.337 236.659 100.993 237.019C100.372 237.667 100.29 238.296 99.9633 239.082C99.5542 240.066 98.7318 240.886 98.3536 241.871Z" fill="#3F3D56"/>
<path d="M161.872 255.355C161.478 255.217 161.096 255.053 160.729 254.866C160.361 255.777 160.165 256.738 160.15 257.707L162.842 256.336C163.247 256.13 163.706 255.843 163.698 255.424C163.701 255.372 163.689 255.321 163.663 255.275C163.637 255.228 163.598 255.189 163.549 255.162C163.489 255.14 163.424 255.133 163.36 255.142C162.961 255.172 162.597 255.349 162.22 255.472C161.843 255.595 161.403 255.66 161.057 255.477" fill="#3F3D56"/>
<path d="M176.076 256.169C175.781 256.242 175.492 256.335 175.213 256.448C174.595 256.731 174.174 257.269 173.618 257.641C173.086 257.998 172.446 258.194 171.817 258.384C171.632 258.531 171.717 258.828 171.918 258.957C172.133 259.068 172.381 259.118 172.629 259.101C173.282 259.114 173.97 259.12 174.543 258.836C174.865 258.647 175.167 258.432 175.444 258.192C176.113 257.69 176.916 257.358 177.711 257.038C178.001 256.939 178.269 256.795 178.502 256.612C179.002 256.169 179.037 255.486 178.316 255.335C177.734 255.213 176.631 256.008 176.076 256.169Z" fill="#3F3D56"/>
<path d="M182.352 252.48C182.385 252.175 182.34 251.867 182.221 251.58C182.102 251.293 181.912 251.034 181.665 250.823C181.658 251.433 181.637 252.083 181.256 252.588C180.984 252.947 180.558 253.19 180.261 253.532C179.963 253.875 179.831 254.417 180.18 254.718C180.403 254.871 180.675 254.955 180.955 254.958C181.65 255.032 182.455 255.073 182.942 254.621C183.208 254.374 183.337 254.009 183.662 253.828C183.783 253.782 183.891 253.713 183.978 253.624C184.112 253.433 183.899 253.18 183.659 253.111C183.42 253.042 183.156 253.075 182.915 253.009C182.674 252.943 182.453 252.7 182.577 252.502" fill="#3F3D56"/>
<path d="M171.198 230.112C170.833 230.192 170.455 230.212 170.083 230.171C169.464 230.069 168.983 229.649 168.483 229.305C167.296 228.491 165.853 228.038 164.361 228.009C163.004 227.986 161.634 228.317 160.301 228.086C160.388 228.522 160.803 228.849 161.245 229.043C161.687 229.237 162.175 229.335 162.62 229.525C163.331 229.833 163.896 230.362 164.209 231.014C164.352 231.315 164.443 231.642 164.659 231.904C165.102 232.441 165.942 232.559 166.684 232.515C167.65 232.458 168.659 232.208 169.558 232.532C170.246 232.78 170.738 233.321 171.313 233.743C171.887 234.164 172.696 234.477 173.355 234.173C172.67 233.973 172.074 233.582 171.654 233.056C171.234 232.529 171.011 231.896 171.019 231.248C171.666 231.302 173.529 231.281 173.428 230.292C173.343 229.454 171.753 230.021 171.198 230.112Z" fill="#3F3D56"/>
<path d="M162.737 236.932C162.852 236.365 163.48 235.864 163.284 235.316C163.149 234.936 162.66 234.749 162.217 234.74C161.775 234.73 161.34 234.849 160.897 234.86C160.609 234.846 160.32 234.85 160.033 234.871C159.154 235.001 158.613 235.83 157.785 236.125C157.281 236.304 156.716 236.27 156.192 236.393C155.004 236.675 154.252 237.685 153.421 238.5C152.078 239.811 150.329 240.729 148.401 241.135C147.725 241.276 146.999 241.366 146.461 241.761C145.75 242.284 145.575 243.181 145.417 243.995C144.979 246.244 144.311 248.452 143.421 250.59L146.243 250.914C146.779 250.976 147.335 251.036 147.852 250.893C148.228 250.766 148.584 250.595 148.911 250.386C150.168 249.683 151.575 249.226 153.04 249.044C153.779 248.953 154.554 248.936 155.248 249.183C155.941 249.431 156.536 249.991 156.594 250.661C156.894 250.577 157.214 250.568 157.519 250.634C157.824 250.701 158.104 250.841 158.327 251.04C158.769 251.445 159.058 251.965 159.154 252.526C159.229 252.874 159.303 253.29 159.661 253.436C159.954 253.555 160.289 253.427 160.609 253.404C161.694 253.326 162.594 254.464 163.661 254.268C164.804 254.058 165.085 252.516 166.201 252.207C166.842 252.03 167.741 252.246 168.048 251.709C168.318 251.236 167.779 250.691 167.834 250.161C167.903 249.509 168.757 249.232 169.416 248.954C171.687 247.995 172.765 245.244 171.664 243.215C171.012 242.013 169.729 241.067 169.492 239.746C169.31 238.73 169.755 237.545 169.035 236.745C168.669 236.338 168.049 236.114 167.831 235.628C167.694 235.323 167.749 234.976 167.675 234.653C167.602 234.33 167.289 233.993 166.934 234.076C165.906 234.319 165.578 237.178 165.028 237.872C164.191 238.928 162.473 238.233 162.737 236.932Z" fill="#3F3D56"/>
<path d="M143.733 231.192C143.382 231.103 142.998 231.016 142.661 231.143C142.325 231.269 142.128 231.714 142.398 231.935C144.512 231.861 146.639 231.787 148.735 232.046C151.149 232.343 153.539 233.081 155.964 232.864C154.579 232.496 153.171 232.202 151.747 231.983L149.373 231.575C148.736 231.455 148.092 231.365 147.444 231.307C146.09 231.206 145.065 231.528 143.733 231.192Z" fill="#3F3D56"/>
<path d="M145.849 224.566C145.673 224.553 145.456 224.542 145.365 224.678C145.279 224.807 145.378 224.979 145.331 225.124C145.267 225.323 144.978 225.374 144.75 225.347C144.523 225.32 144.276 225.255 144.074 225.354C143.972 225.417 143.895 225.508 143.855 225.613C143.815 225.719 143.814 225.833 143.853 225.94C143.935 226.15 144.069 226.342 144.243 226.5C144.542 226.839 144.882 227.146 145.258 227.416C145.984 227.898 146.968 228.131 147.426 228.832C147.49 228.967 147.59 229.088 147.715 229.182C147.935 229.308 148.222 229.212 148.458 229.115L149.287 228.774C149.436 228.726 149.57 228.644 149.675 228.537C149.864 228.306 149.748 227.977 149.589 227.728C149.43 227.478 149.226 227.221 149.26 226.935C149.321 226.426 150.049 226.231 150.348 225.795C150.65 225.356 150.453 224.79 150.488 224.274C150.529 223.671 150.95 222.887 150.273 222.437C149.697 222.054 149.147 222.408 148.734 222.83C147.863 223.722 147.451 224.687 145.849 224.566Z" fill="#3F3D56"/>
<path d="M150.881 215.56C151.164 216.047 151.754 216.338 152.063 216.813C152.397 217.328 152.359 217.993 152.722 218.492C153.094 219.004 153.844 219.276 154.053 219.859C154.281 220.494 153.763 221.267 154.176 221.823C154.253 221.913 154.35 221.989 154.461 222.044C154.572 222.099 154.694 222.133 154.82 222.144C154.947 222.154 155.074 222.141 155.194 222.105C155.315 222.069 155.425 222.01 155.519 221.934C155.693 221.763 155.786 221.539 155.779 221.307C155.771 221.076 155.663 220.857 155.479 220.696C155.235 220.496 154.884 220.409 154.68 220.175C154.574 220.04 154.503 219.885 154.473 219.722C154.362 219.251 154.38 218.763 154.525 218.3C154.58 218.182 154.594 218.053 154.565 217.928C154.473 217.688 154.112 217.671 153.859 217.56C153.283 217.307 153.297 216.575 153.397 216.006C153.33 216.385 151.83 215.74 151.673 215.526C151.361 215.099 151.531 214.276 151.469 213.805C150.795 214.097 150.535 214.963 150.881 215.56Z" fill="#3F3D56"/>
<path d="M135.765 223.064C135.488 222.785 135.071 222.493 134.699 222.661C134.416 222.79 134.338 223.142 134.449 223.41C134.584 223.669 134.793 223.893 135.053 224.058C135.827 224.632 136.66 225.151 137.335 225.818C138.543 227.013 139.183 228.625 140.497 229.726C140.761 229.981 141.111 230.151 141.493 230.211C141.875 230.243 142.305 230.022 142.349 229.679C142.385 229.395 142.166 229.142 141.952 228.932C141.441 228.433 140.883 227.973 140.401 227.451C140.178 227.25 140.039 226.987 140.004 226.706C140.002 226.425 140.287 226.13 140.589 226.2C140.221 226.115 139.948 225.564 139.408 225.46C138.957 225.373 138.848 225.625 138.311 225.417C137.286 225.022 136.482 223.787 135.765 223.064Z" fill="#3F3D56"/>
<path d="M159.839 195.895C159.545 195.816 159.256 195.723 158.973 195.617C158.213 195.411 157.206 195.914 157.307 196.623C157.375 197.094 157.862 197.412 158.131 197.821C158.53 198.426 158.424 199.195 158.214 199.874C158.162 200.084 158.065 200.282 157.926 200.458C157.732 200.643 157.501 200.793 157.244 200.899C156.217 201.418 155.311 202.11 154.577 202.939C154.497 203.015 154.441 203.11 154.415 203.212C154.379 203.452 154.647 203.626 154.798 203.826C155.133 204.269 154.891 204.866 154.924 205.402C154.919 205.477 154.935 205.553 154.972 205.621C155.008 205.69 155.064 205.749 155.133 205.793C155.335 205.885 155.575 205.728 155.684 205.549C156.048 204.956 155.774 204.003 156.457 203.717C156.586 203.663 156.743 203.64 156.829 203.538C156.966 203.376 156.834 203.136 156.903 202.942C157.007 202.651 157.449 202.638 157.788 202.651C158.372 202.673 158.956 202.603 159.513 202.444C159.732 202.398 159.931 202.294 160.085 202.147C160.289 201.918 160.271 201.592 160.23 201.3C160.025 199.847 159.514 198.442 158.723 197.162C159.323 197.231 159.975 197.291 160.493 197.009C160.783 196.852 161.13 196.381 160.987 196.06C160.759 195.553 160.349 195.98 159.839 195.895Z" fill="#3F3D56"/>
<path d="M82.9389 203.888C83.0107 204.234 83.0813 204.599 82.9551 204.933C82.8289 205.266 82.432 205.545 82.0572 205.443C81.7663 205.364 81.5983 205.1 81.3917 204.9C80.2431 203.784 77.6516 204.43 76.942 203.049C76.6524 202.486 76.8492 201.81 76.6517 201.216C76.5271 200.872 76.2791 200.575 75.9468 200.372C75.6144 200.169 75.2165 200.07 74.8154 200.093C74.4496 200.14 74.0936 200.236 73.7587 200.377C71.5152 201.185 69.16 201.716 66.7577 201.953C66.3011 201.978 65.8495 202.052 65.4124 202.173C64.426 202.495 63.7521 203.318 63.2724 204.158C62.7928 204.998 62.4387 205.907 61.7956 206.653C61.1198 207.437 60.1728 207.986 59.2894 208.58C58.949 208.778 58.6657 209.045 58.4626 209.36C58.2711 209.714 58.2819 210.126 58.2967 210.519L58.4773 215.297C58.5005 215.911 58.5297 216.548 58.8353 217.098C59.2169 217.785 59.9708 218.234 60.4938 218.841C61.0275 219.465 61.3056 220.235 61.2808 221.021C61.2697 221.338 61.2348 221.712 61.5085 221.911C61.675 222.008 61.8698 222.058 62.0682 222.055L69.2493 222.584C70.5125 222.677 71.9125 222.83 72.7372 223.697C73.1264 224.105 73.4391 224.693 74.0353 224.737C74.291 224.756 74.5398 224.661 74.7956 224.643C75.4409 224.597 76.0078 225.038 76.3656 225.524C76.9071 226.264 77.1529 227.147 77.0626 228.03C77.0039 228.584 76.8131 229.122 76.772 229.677C76.6155 231.789 78.6051 233.625 78.6437 235.741C78.6664 236.986 78.0096 238.15 77.3694 239.254C78.4027 240.662 77.5565 242.539 77.968 244.186C78.3583 245.748 79.806 246.972 80.1667 248.54C80.3319 249.258 80.3414 250.142 81.0449 250.512C81.3536 250.647 81.6958 250.709 82.0386 250.691C84.1064 250.713 86.1507 250.294 88.0042 249.468C88.874 249.08 89.7756 248.5 89.9275 247.637C90.05 246.94 89.6577 246.162 90.0569 245.555C90.5274 244.841 91.7327 244.897 92.4249 244.348C93.5479 243.457 92.6722 241.756 93.1272 240.473C93.5362 239.319 94.9441 238.705 95.642 237.67C95.9167 237.224 96.1138 236.743 96.2264 236.244C96.5461 235.051 96.7452 233.834 96.821 232.609C96.8396 231.864 96.9006 231.121 97.0038 230.382C97.7562 226.174 102.378 223.357 103.878 219.316C104.021 218.93 104.089 218.415 103.707 218.197C103.481 218.1 103.224 218.076 102.981 218.129L99.6702 218.504C99.259 218.551 98.8232 218.594 98.4456 218.441C98.068 218.287 97.7974 217.857 97.9977 217.531C98.5599 216.614 97.4034 215.456 96.8895 214.516C95.5058 211.987 93.8579 209.582 91.9683 207.333C91.8473 207.218 91.7716 207.07 91.7525 206.912L92.692 206.94C92.3749 205.916 91.8515 204.795 90.7459 204.42C90.1229 204.209 89.433 204.282 88.7683 204.315C86.8644 204.409 84.8233 204.15 82.9389 203.888Z" fill="#3F3D56"/>
<path d="M88.7698 180.807C89.2681 181.283 89.8263 181.788 90.5472 181.871C91.8204 182.018 92.7358 180.833 93.3186 179.804C93.3402 180.066 93.4747 180.31 93.6934 180.485C93.9122 180.659 94.198 180.75 94.49 180.738C94.8043 180.691 95.1042 180.585 95.371 180.428C97.8937 179.187 100.719 178.53 103.594 178.515C103.566 178.319 103.62 178.121 103.745 177.959C103.871 177.796 104.058 177.682 104.272 177.636C104.856 177.532 105.383 177.987 105.665 178.459C105.947 178.932 106.123 179.479 106.571 179.833C107.019 180.187 107.886 180.171 108.063 179.659C108.233 179.168 107.664 178.748 107.191 178.458C106.718 178.169 106.22 177.632 106.538 177.204C108.953 176.723 111.384 176.24 113.855 176.145C114.276 176.158 114.695 176.093 115.087 175.954C115.464 175.787 115.763 175.409 115.662 175.043C115.123 175.157 114.558 175.124 114.039 174.948C113.521 174.772 113.073 174.461 112.751 174.054C116.181 173.8 119.828 173.583 122.868 175.035C123.232 175.74 121.373 176.326 121.871 176.961C122.029 177.164 122.347 177.188 122.623 177.193C124.735 177.228 126.859 177.262 128.947 176.975C129.71 176.871 130.481 176.723 131.247 176.808C132.523 176.949 133.615 177.716 134.87 177.965C135.381 178.067 135.954 178.071 136.385 177.803C136.816 177.536 137.001 176.927 136.648 176.579C137.83 175.536 139.792 175.795 141.351 176.294C142.91 176.793 144.388 177.598 146.038 177.709C147.222 177.789 148.422 177.502 149.591 177.685C150.326 177.799 151.01 178.093 151.729 178.274C153.087 178.616 154.524 178.544 155.935 178.56C159.533 178.604 163.093 179.24 166.437 180.438C166.872 180.566 167.271 180.778 167.605 181.059C167.916 181.359 168.074 181.825 167.865 182.19L164.41 181.735C164.735 182.312 165.578 182.41 166.262 182.609C166.946 182.808 167.655 183.488 167.244 184.019C166.503 183.807 165.831 184.473 165.457 185.087C165.082 185.701 164.626 186.436 163.849 186.473C163.154 186.506 162.313 185.973 161.859 186.449C162.486 187.16 163.022 187.932 163.458 188.75C163.906 189.59 164.225 190.648 163.62 191.403C163.525 191.538 163.38 191.639 163.211 191.689C162.717 191.801 162.396 191.257 162.041 190.927C161.594 190.511 160.919 190.393 160.314 190.198C159.709 190.004 159.071 189.62 159.024 189.043C158.995 188.684 159.205 188.351 159.36 188.019C159.621 187.46 159.735 186.854 159.693 186.249C159.659 185.762 159.508 185.256 159.119 184.916C158.731 184.576 158.06 184.468 157.643 184.779C157.448 184.925 157.292 185.157 157.04 185.166C156.593 185.181 156.25 184.481 155.891 184.72C155.933 184.975 155.875 185.235 155.725 185.454C154.653 186.294 153.006 185.939 151.624 186.235C150.967 186.404 150.338 186.652 149.753 186.97C149.535 187.055 149.349 187.195 149.219 187.374C149.046 187.676 149.236 188.062 149.54 188.263C149.863 188.441 150.225 188.552 150.601 188.589C152.286 188.876 153.996 189.321 155.326 190.295C156.656 191.269 157.528 192.879 157.107 194.375L153.785 191.517C153.911 192.717 153.983 193.92 154 195.127C154.021 195.362 153.985 195.599 153.894 195.821C153.657 196.292 153.015 196.45 152.453 196.554C152.296 196.581 152.148 196.637 152.017 196.719C151.887 196.801 151.777 196.907 151.695 197.03C151.613 197.153 151.561 197.29 151.542 197.432C151.524 197.575 151.539 197.719 151.586 197.856C151.786 198.442 152.284 198.899 152.741 199.355C153.197 199.81 153.646 200.328 153.706 200.939C153.766 201.55 153.253 202.239 152.574 202.196C152.058 202.164 151.676 201.749 151.456 201.328C151.236 200.907 151.105 200.439 150.775 200.081C149.775 198.999 147.53 199.463 146.634 198.309C146.406 198.542 146.248 198.824 146.175 199.127C146.101 199.431 146.115 199.746 146.216 200.044C146.632 199.809 147.203 200.027 147.516 200.368C147.829 200.709 147.976 201.146 148.222 201.53C148.554 202.046 149.082 202.505 149.128 203.1C149.116 203.325 149.12 203.551 149.141 203.776C149.223 204.137 149.562 204.396 149.797 204.697C150.343 205.399 150.316 206.363 149.964 207.159C149.612 207.955 148.979 208.621 148.352 209.266C147.257 210.392 146.139 211.513 144.841 212.448C144.47 212.715 144.075 212.978 143.844 213.351C143.613 213.724 143.602 214.248 143.956 214.532C143.702 214.543 143.247 214.656 142.994 214.667C142.904 213.751 142.885 212.831 142.936 211.912C141.934 211.48 140.856 212.638 140.986 213.631C141.115 214.624 141.913 215.421 142.481 216.28C142.896 216.908 143.205 217.64 143.066 218.36C142.927 219.081 142.213 219.745 141.404 219.682C140.117 219.58 139.579 217.918 138.304 217.727C138.192 217.704 138.074 217.714 137.969 217.757C137.78 217.851 137.747 218.079 137.736 218.273C137.684 219.225 137.639 220.215 138.052 221.092C138.656 222.377 140.217 223.455 139.889 224.818C138.126 224.08 137.209 222.3 136.792 220.59C136.376 218.881 136.307 217.086 135.56 215.469C134.994 216.123 133.803 215.583 133.285 214.897C132.794 214.247 132.492 213.495 132.015 212.836C131.539 212.177 130.81 211.587 129.937 211.551C129.022 211.513 128.229 212.078 127.531 212.611C126.958 213.05 126.369 213.507 126.033 214.113C125.545 214.996 125.673 216.037 125.649 217.023C125.624 218.089 125.373 219.214 124.566 219.994C123.759 220.774 122.269 221.046 121.378 220.343C120.914 219.976 120.689 219.427 120.488 218.901C119.522 216.362 118.717 213.777 118.078 211.156C117.928 211.754 117.345 212.525 116.787 212.173C116.662 212.078 116.561 211.961 116.49 211.828C115.45 210.242 113.524 209.29 111.578 208.72C109.633 208.149 107.585 207.883 105.661 207.256C104.583 206.905 103.553 206.443 102.592 205.88C102.347 206.204 102.204 206.582 102.178 206.973C102.152 207.364 102.244 207.755 102.444 208.103C102.871 208.783 103.837 209.177 104.664 208.939C105.091 208.816 105.452 208.549 105.876 208.417C106.3 208.285 106.869 208.35 107.054 208.718C107.231 209.069 106.963 209.495 107.096 209.862C107.299 210.422 108.237 210.465 108.564 210.974C108.808 211.353 108.608 211.856 108.259 212.162C107.911 212.468 107.446 212.635 107.021 212.848C105.641 213.539 104.66 214.717 103.455 215.634C102.249 216.551 100.548 217.221 99.1108 216.633C99.4534 215.072 97.3873 213.926 97.0072 212.372C96.8821 211.86 96.947 211.317 96.7684 210.818C96.5098 210.097 95.7984 209.601 95.2148 209.054C94.507 208.383 93.9556 207.592 93.5931 206.727C93.2305 205.861 93.0643 204.939 93.1041 204.015C93.1357 203.373 93.2668 202.72 93.1042 202.094C92.9416 201.468 92.3658 200.862 91.6522 200.891C90.0224 200.955 87.9693 201.065 87.1142 199.814C86.809 199.368 86.6762 198.714 87.1174 198.372C87.4287 198.131 87.8882 198.154 88.2969 198.19L91.9691 198.515C92.8279 198.591 93.7563 198.654 94.4933 198.25C95.2303 197.846 95.5497 196.773 94.8672 196.298C94.3686 195.95 93.4752 195.969 93.3303 195.417C93.2096 194.957 93.7753 194.435 93.4698 194.051C93.2507 193.775 92.7581 193.851 92.4597 194.058C92.1612 194.265 91.9447 194.567 91.6106 194.723C91.0247 194.998 90.3245 194.737 89.6941 194.559C89.0637 194.381 88.2186 194.366 87.9128 194.893C87.5708 195.483 88.2161 196.255 87.8767 196.846C87.428 197.626 85.9085 197.182 85.2783 197.853C84.5552 198.624 85.7704 199.773 85.5265 200.758C85.2152 200.897 84.8692 200.96 84.5223 200.943C84.1754 200.925 83.8395 200.827 83.5474 200.658C83.2601 200.482 83.0311 200.239 82.8849 199.955C82.7386 199.672 82.6805 199.358 82.7167 199.047C82.777 198.604 83.0336 198.152 82.8617 197.733C82.7227 197.395 82.3452 197.193 81.9944 197.019L78.4259 195.244C78.0946 195.797 78.5134 196.483 79.0372 196.899C79.5611 197.314 80.2172 197.627 80.5613 198.174C80.779 198.553 80.8278 198.992 80.6977 199.402C80.5677 199.812 80.2686 200.162 79.8615 200.38C79.8105 200.412 79.7525 200.433 79.6914 200.443C79.6304 200.453 79.5677 200.45 79.5078 200.436C79.4509 200.406 79.4012 200.366 79.3618 200.318C79.3224 200.27 79.2941 200.216 79.2784 200.158C78.6488 198.708 77.7035 197.278 76.1921 196.521C74.6808 195.763 72.5092 195.919 71.5181 197.195C71.2827 197.498 71.1247 197.844 70.9196 198.164C69.8302 199.867 67.4945 200.673 65.3123 200.62C65.0989 200.631 64.8865 200.586 64.7006 200.491C64.3479 200.272 64.3638 199.806 64.4178 199.424L64.6469 197.8C64.6929 197.474 64.7595 197.113 65.0463 196.91C65.4506 196.623 66.0338 196.804 66.5486 196.797C66.9386 196.781 67.3136 196.657 67.6227 196.442C67.9318 196.227 68.1601 195.932 68.2766 195.597C68.3806 195.258 68.38 194.9 68.2747 194.562C68.1694 194.223 67.9636 193.917 67.6793 193.676C67.4433 193.477 67.1266 193.226 67.2513 192.958C67.301 192.883 67.3682 192.82 67.4482 192.771C67.5282 192.723 67.6191 192.69 67.7143 192.677C68.6391 192.435 69.6162 192.372 70.5256 192.087C71.4349 191.802 72.3168 191.218 72.5321 190.373C72.5981 190.114 72.6282 189.801 72.8865 189.673C73.0162 189.623 73.1554 189.598 73.2961 189.597C73.7891 189.534 74.238 189.307 74.5544 188.961C74.8707 188.615 75.0317 188.175 75.0056 187.727C75.4414 187.453 76.052 187.655 76.4736 187.946C76.8952 188.238 77.2674 188.623 77.7804 188.749C78.7364 188.983 79.6603 188.221 80.6511 188.218C81.0677 188.216 81.499 188.349 81.891 188.221C82.2884 188.093 82.5257 187.737 82.8307 187.474C83.1357 187.211 83.6708 187.05 83.9524 187.333L83.7126 185.735C84.1955 185.845 84.699 185.86 85.1892 185.78C85.6794 185.701 86.1449 185.527 86.5546 185.272L83.4552 184.33C83.3473 184.306 83.2477 184.258 83.1654 184.19C82.9401 183.972 83.1639 183.632 83.3471 183.384C83.7854 182.79 83.859 181.812 83.1382 181.516C82.6462 181.314 82.0814 181.556 81.6092 181.793L79.3471 182.928C79.2752 183.315 79.801 183.535 80.1268 183.795C80.324 183.953 80.4635 184.161 80.5271 184.391C80.5907 184.622 80.5753 184.864 80.4831 185.086C80.3909 185.309 80.2261 185.501 80.0103 185.637C79.7946 185.774 79.538 185.849 79.2742 185.852C79.4232 186.026 79.5267 186.228 79.5771 186.443C79.6274 186.658 79.6234 186.881 79.5652 187.095L78.0432 187.193C77.8723 187.224 77.6949 187.193 77.5495 187.106C77.3867 186.976 77.4088 186.748 77.3711 186.555C77.28 186.089 76.7732 185.763 76.2561 185.679C75.7389 185.596 75.2098 185.703 74.6977 185.809C74.4802 185.879 74.2414 185.874 74.0278 185.795C73.9053 185.723 73.8122 185.618 73.7628 185.494C73.5382 185.004 73.7481 184.428 74.1087 184.009C74.4693 183.59 74.963 183.284 75.4063 182.935C76.4665 182.098 77.2455 181.01 77.6552 179.796C78.493 179.48 79.3605 179.05 80.1983 178.734C81.4901 178.146 82.9387 177.893 84.3813 178.005L87.2188 178.054C88.0589 178.068 88.9217 178.087 89.6985 178.375C90.4754 178.663 91.1579 179.287 91.2116 180.041C91.2277 180.127 91.2195 180.215 91.1877 180.296C91.1559 180.378 91.1015 180.451 91.0296 180.509C90.9199 180.563 90.7957 180.588 90.6709 180.582C89.8874 180.607 89.5533 180.782 88.7698 180.807Z" fill="#3F3D56"/>
<path d="M66.1528 188.811C66.2637 188.716 66.3434 188.596 66.3834 188.464C66.4233 188.331 66.4219 188.191 66.3792 188.059C66.1095 187.965 65.816 187.941 65.5319 187.99C65.2478 188.038 64.9842 188.157 64.771 188.332C64.6029 188.485 64.4581 188.658 64.3402 188.845C63.9673 189.393 63.6375 190.047 63.8536 190.658C63.8712 190.725 63.9035 190.788 63.9485 190.844C63.9934 190.899 64.0503 190.946 64.1156 190.981C64.2124 191.016 64.3168 191.031 64.4209 191.024C64.8317 191.024 65.242 191.001 65.6498 190.956C65.9001 190.928 66.191 190.865 66.2877 190.655C66.4149 190.379 66.1071 190.068 66.1968 189.78C66.2559 189.652 66.3453 189.537 66.459 189.442C66.5154 189.395 66.5587 189.336 66.5856 189.271C66.6124 189.206 66.622 189.136 66.6136 189.067C66.5774 188.933 66.3481 188.856 66.2655 188.973" fill="#3F3D56"/>
<path d="M68.2829 186.325C67.918 186.25 67.5419 186.229 67.1694 186.262C67.087 186.26 67.0053 186.277 66.9321 186.311C66.8611 186.358 66.8097 186.425 66.7859 186.502C66.7072 186.729 66.7266 186.974 66.8401 187.189C66.9536 187.404 67.1529 187.573 67.3983 187.662C67.5321 187.689 67.6603 187.736 67.7781 187.799C68.0931 188.019 67.8923 188.469 67.9519 188.823C68.0189 189.222 68.4473 189.556 68.3687 189.953C68.3069 190.265 67.9361 190.512 67.9958 190.825C68.0583 191.153 68.5202 191.251 68.8884 191.278C69.1018 191.311 69.3214 191.288 69.5208 191.212C69.7207 191.089 69.8628 190.904 69.9198 190.692C70.0706 190.288 70.1339 189.862 70.1064 189.437C70.1048 189.244 70.0508 189.053 69.9492 188.883C69.8383 188.748 69.7154 188.621 69.5817 188.504C68.8762 187.766 69.619 186.664 68.2829 186.325Z" fill="#3F3D56"/>
<path opacity="0.8" d="M161.046 244.177C161.046 244.177 107.017 216.265 83.7565 221.554C83.7565 221.554 34.461 226.328 28.7479 236.832C28.7479 236.832 13.0778 192.76 7.36475 191.291" stroke="#6C63FF" stroke-width="2" stroke-miterlimit="10"/>
<path opacity="0.8" d="M28.7479 236.832C37.8072 215.09 119.422 190.997 119.422 190.997C107.833 193.641 83.7565 221.554 83.7565 221.554C83.7565 221.554 32.8286 188.206 7.36475 191.291C7.36475 191.291 119.504 194.596 161.046 244.177" stroke="#6C63FF" stroke-width="2" stroke-miterlimit="10"/>
<path d="M7.36489 193.421C8.67206 193.421 9.73173 192.467 9.73173 191.291C9.73173 190.114 8.67206 189.161 7.36489 189.161C6.05772 189.161 4.99805 190.114 4.99805 191.291C4.99805 192.467 6.05772 193.421 7.36489 193.421Z" fill="#6C63FF"/>
<path d="M28.7479 238.962C30.0551 238.962 31.1148 238.008 31.1148 236.832C31.1148 235.656 30.0551 234.702 28.7479 234.702C27.4408 234.702 26.3811 235.656 26.3811 236.832C26.3811 238.008 27.4408 238.962 28.7479 238.962Z" fill="#6C63FF"/>
<path d="M119.422 193.127C120.729 193.127 121.789 192.174 121.789 190.997C121.789 189.821 120.729 188.867 119.422 188.867C118.115 188.867 117.055 189.821 117.055 190.997C117.055 192.174 118.115 193.127 119.422 193.127Z" fill="#6C63FF"/>
<path d="M161.046 246.307C162.353 246.307 163.413 245.354 163.413 244.177C163.413 243.001 162.353 242.047 161.046 242.047C159.739 242.047 158.679 243.001 158.679 244.177C158.679 245.354 159.739 246.307 161.046 246.307Z" fill="#6C63FF"/>
<path d="M83.7565 223.684C85.0636 223.684 86.1233 222.73 86.1233 221.554C86.1233 220.377 85.0636 219.424 83.7565 219.424C82.4493 219.424 81.3896 220.377 81.3896 221.554C81.3896 222.73 82.4493 223.684 83.7565 223.684Z" fill="#6C63FF"/>
</g>
<path d="M262.5 819C222.9 825 219.333 873.833 222.5 897.5H416V722C347 778.5 363 837 335.5 848C308 859 312 811.5 262.5 819Z" fill="white"/>
<defs>
<linearGradient id="paint0_linear" x1="-31" y1="194.5" x2="343.5" y2="808" gradientUnits="userSpaceOnUse">
<stop stop-color="#2CF8EB"/>
<stop offset="0.373924" stop-color="#249FE8" stop-opacity="0.91"/>
<stop offset="0.656137" stop-color="#1F68E6" stop-opacity="0.83"/>
<stop offset="1" stop-color="#1A2EE4"/>
</linearGradient>
<linearGradient id="paint1_linear" x1="193.96" y1="537.89" x2="193.96" y2="264" gradientUnits="userSpaceOnUse">
<stop stop-color="#808080" stop-opacity="0.25"/>
<stop offset="0.54" stop-color="#808080" stop-opacity="0.12"/>
<stop offset="1" stop-color="#808080" stop-opacity="0.1"/>
</linearGradient>
<clipPath id="clip0">
<rect width="313" height="287" fill="white" transform="matrix(-1 0 0 1 311 264)"/>
</clipPath>
</defs>
</svg>
